%TF.GenerationSoftware,KiCad,Pcbnew,(6.0.4)*%
%TF.CreationDate,2025-11-09T20:57:56+08:00*%
%TF.ProjectId,KiCad,4b694361-642e-46b6-9963-61645f706362,rev?*%
%TF.SameCoordinates,Original*%
%TF.FileFunction,Legend,Top*%
%TF.FilePolarity,Positive*%
%FSLAX46Y46*%
G04 Gerber Fmt 4.6, Leading zero omitted, Abs format (unit mm)*
G04 Created by KiCad (PCBNEW (6.0.4)) date 2025-11-09 20:57:56*
%MOMM*%
%LPD*%
G01*
G04 APERTURE LIST*
%ADD10C,0.150000*%
%ADD11C,0.120000*%
G04 APERTURE END LIST*
D10*
%TO.C,U1*%
X78192380Y-43931904D02*
X79001904Y-43931904D01*
X79097142Y-43884285D01*
X79144761Y-43836666D01*
X79192380Y-43741428D01*
X79192380Y-43550952D01*
X79144761Y-43455714D01*
X79097142Y-43408095D01*
X79001904Y-43360476D01*
X78192380Y-43360476D01*
X79192380Y-42360476D02*
X79192380Y-42931904D01*
X79192380Y-42646190D02*
X78192380Y-42646190D01*
X78335238Y-42741428D01*
X78430476Y-42836666D01*
X78478095Y-42931904D01*
%TO.C,J5*%
X101267380Y-32083333D02*
X101981666Y-32083333D01*
X102124523Y-32130952D01*
X102219761Y-32226190D01*
X102267380Y-32369047D01*
X102267380Y-32464285D01*
X101267380Y-31130952D02*
X101267380Y-31607142D01*
X101743571Y-31654761D01*
X101695952Y-31607142D01*
X101648333Y-31511904D01*
X101648333Y-31273809D01*
X101695952Y-31178571D01*
X101743571Y-31130952D01*
X101838809Y-31083333D01*
X102076904Y-31083333D01*
X102172142Y-31130952D01*
X102219761Y-31178571D01*
X102267380Y-31273809D01*
X102267380Y-31511904D01*
X102219761Y-31607142D01*
X102172142Y-31654761D01*
%TO.C,J2*%
X88572380Y-32083333D02*
X89286666Y-32083333D01*
X89429523Y-32130952D01*
X89524761Y-32226190D01*
X89572380Y-32369047D01*
X89572380Y-32464285D01*
X88667619Y-31654761D02*
X88620000Y-31607142D01*
X88572380Y-31511904D01*
X88572380Y-31273809D01*
X88620000Y-31178571D01*
X88667619Y-31130952D01*
X88762857Y-31083333D01*
X88858095Y-31083333D01*
X89000952Y-31130952D01*
X89572380Y-31702380D01*
X89572380Y-31083333D01*
%TO.C,R37*%
X86987142Y-56332380D02*
X86653809Y-55856190D01*
X86415714Y-56332380D02*
X86415714Y-55332380D01*
X86796666Y-55332380D01*
X86891904Y-55380000D01*
X86939523Y-55427619D01*
X86987142Y-55522857D01*
X86987142Y-55665714D01*
X86939523Y-55760952D01*
X86891904Y-55808571D01*
X86796666Y-55856190D01*
X86415714Y-55856190D01*
X87320476Y-55332380D02*
X87939523Y-55332380D01*
X87606190Y-55713333D01*
X87749047Y-55713333D01*
X87844285Y-55760952D01*
X87891904Y-55808571D01*
X87939523Y-55903809D01*
X87939523Y-56141904D01*
X87891904Y-56237142D01*
X87844285Y-56284761D01*
X87749047Y-56332380D01*
X87463333Y-56332380D01*
X87368095Y-56284761D01*
X87320476Y-56237142D01*
X88272857Y-55332380D02*
X88939523Y-55332380D01*
X88510952Y-56332380D01*
%TO.C,R39*%
X122499642Y-60142380D02*
X122166309Y-59666190D01*
X121928214Y-60142380D02*
X121928214Y-59142380D01*
X122309166Y-59142380D01*
X122404404Y-59190000D01*
X122452023Y-59237619D01*
X122499642Y-59332857D01*
X122499642Y-59475714D01*
X122452023Y-59570952D01*
X122404404Y-59618571D01*
X122309166Y-59666190D01*
X121928214Y-59666190D01*
X122832976Y-59142380D02*
X123452023Y-59142380D01*
X123118690Y-59523333D01*
X123261547Y-59523333D01*
X123356785Y-59570952D01*
X123404404Y-59618571D01*
X123452023Y-59713809D01*
X123452023Y-59951904D01*
X123404404Y-60047142D01*
X123356785Y-60094761D01*
X123261547Y-60142380D01*
X122975833Y-60142380D01*
X122880595Y-60094761D01*
X122832976Y-60047142D01*
X123928214Y-60142380D02*
X124118690Y-60142380D01*
X124213928Y-60094761D01*
X124261547Y-60047142D01*
X124356785Y-59904285D01*
X124404404Y-59713809D01*
X124404404Y-59332857D01*
X124356785Y-59237619D01*
X124309166Y-59190000D01*
X124213928Y-59142380D01*
X124023452Y-59142380D01*
X123928214Y-59190000D01*
X123880595Y-59237619D01*
X123832976Y-59332857D01*
X123832976Y-59570952D01*
X123880595Y-59666190D01*
X123928214Y-59713809D01*
X124023452Y-59761428D01*
X124213928Y-59761428D01*
X124309166Y-59713809D01*
X124356785Y-59666190D01*
X124404404Y-59570952D01*
%TO.C,J4*%
X199056666Y-73402380D02*
X199056666Y-74116666D01*
X199009047Y-74259523D01*
X198913809Y-74354761D01*
X198770952Y-74402380D01*
X198675714Y-74402380D01*
X199961428Y-73735714D02*
X199961428Y-74402380D01*
X199723333Y-73354761D02*
X199485238Y-74069047D01*
X200104285Y-74069047D01*
%TO.C,J3*%
X82216666Y-92142380D02*
X82216666Y-92856666D01*
X82169047Y-92999523D01*
X82073809Y-93094761D01*
X81930952Y-93142380D01*
X81835714Y-93142380D01*
X82597619Y-92142380D02*
X83216666Y-92142380D01*
X82883333Y-92523333D01*
X83026190Y-92523333D01*
X83121428Y-92570952D01*
X83169047Y-92618571D01*
X83216666Y-92713809D01*
X83216666Y-92951904D01*
X83169047Y-93047142D01*
X83121428Y-93094761D01*
X83026190Y-93142380D01*
X82740476Y-93142380D01*
X82645238Y-93094761D01*
X82597619Y-93047142D01*
%TO.C,K6*%
X190984404Y-62794880D02*
X190984404Y-61794880D01*
X191555833Y-62794880D02*
X191127261Y-62223452D01*
X191555833Y-61794880D02*
X190984404Y-62366309D01*
X192412976Y-61794880D02*
X192222500Y-61794880D01*
X192127261Y-61842500D01*
X192079642Y-61890119D01*
X191984404Y-62032976D01*
X191936785Y-62223452D01*
X191936785Y-62604404D01*
X191984404Y-62699642D01*
X192032023Y-62747261D01*
X192127261Y-62794880D01*
X192317738Y-62794880D01*
X192412976Y-62747261D01*
X192460595Y-62699642D01*
X192508214Y-62604404D01*
X192508214Y-62366309D01*
X192460595Y-62271071D01*
X192412976Y-62223452D01*
X192317738Y-62175833D01*
X192127261Y-62175833D01*
X192032023Y-62223452D01*
X191984404Y-62271071D01*
X191936785Y-62366309D01*
%TO.C,K5*%
X170664404Y-62722380D02*
X170664404Y-61722380D01*
X171235833Y-62722380D02*
X170807261Y-62150952D01*
X171235833Y-61722380D02*
X170664404Y-62293809D01*
X172140595Y-61722380D02*
X171664404Y-61722380D01*
X171616785Y-62198571D01*
X171664404Y-62150952D01*
X171759642Y-62103333D01*
X171997738Y-62103333D01*
X172092976Y-62150952D01*
X172140595Y-62198571D01*
X172188214Y-62293809D01*
X172188214Y-62531904D01*
X172140595Y-62627142D01*
X172092976Y-62674761D01*
X171997738Y-62722380D01*
X171759642Y-62722380D01*
X171664404Y-62674761D01*
X171616785Y-62627142D01*
%TO.C,K4*%
X150391904Y-62722380D02*
X150391904Y-61722380D01*
X150963333Y-62722380D02*
X150534761Y-62150952D01*
X150963333Y-61722380D02*
X150391904Y-62293809D01*
X151820476Y-62055714D02*
X151820476Y-62722380D01*
X151582380Y-61674761D02*
X151344285Y-62389047D01*
X151963333Y-62389047D01*
%TO.C,K3*%
X130071904Y-62754880D02*
X130071904Y-61754880D01*
X130643333Y-62754880D02*
X130214761Y-62183452D01*
X130643333Y-61754880D02*
X130071904Y-62326309D01*
X130976666Y-61754880D02*
X131595714Y-61754880D01*
X131262380Y-62135833D01*
X131405238Y-62135833D01*
X131500476Y-62183452D01*
X131548095Y-62231071D01*
X131595714Y-62326309D01*
X131595714Y-62564404D01*
X131548095Y-62659642D01*
X131500476Y-62707261D01*
X131405238Y-62754880D01*
X131119523Y-62754880D01*
X131024285Y-62707261D01*
X130976666Y-62659642D01*
%TO.C,K2*%
X109751904Y-62794880D02*
X109751904Y-61794880D01*
X110323333Y-62794880D02*
X109894761Y-62223452D01*
X110323333Y-61794880D02*
X109751904Y-62366309D01*
X110704285Y-61890119D02*
X110751904Y-61842500D01*
X110847142Y-61794880D01*
X111085238Y-61794880D01*
X111180476Y-61842500D01*
X111228095Y-61890119D01*
X111275714Y-61985357D01*
X111275714Y-62080595D01*
X111228095Y-62223452D01*
X110656666Y-62794880D01*
X111275714Y-62794880D01*
%TO.C,K1*%
X89384404Y-62722380D02*
X89384404Y-61722380D01*
X89955833Y-62722380D02*
X89527261Y-62150952D01*
X89955833Y-61722380D02*
X89384404Y-62293809D01*
X90908214Y-62722380D02*
X90336785Y-62722380D01*
X90622500Y-62722380D02*
X90622500Y-61722380D01*
X90527261Y-61865238D01*
X90432023Y-61960476D01*
X90336785Y-62008095D01*
%TO.C,R11*%
X103322380Y-81922857D02*
X102846190Y-82256190D01*
X103322380Y-82494285D02*
X102322380Y-82494285D01*
X102322380Y-82113333D01*
X102370000Y-82018095D01*
X102417619Y-81970476D01*
X102512857Y-81922857D01*
X102655714Y-81922857D01*
X102750952Y-81970476D01*
X102798571Y-82018095D01*
X102846190Y-82113333D01*
X102846190Y-82494285D01*
X103322380Y-80970476D02*
X103322380Y-81541904D01*
X103322380Y-81256190D02*
X102322380Y-81256190D01*
X102465238Y-81351428D01*
X102560476Y-81446666D01*
X102608095Y-81541904D01*
X103322380Y-80018095D02*
X103322380Y-80589523D01*
X103322380Y-80303809D02*
X102322380Y-80303809D01*
X102465238Y-80399047D01*
X102560476Y-80494285D01*
X102608095Y-80589523D01*
%TO.C,D4*%
X143517302Y-70515595D02*
X142517302Y-70515595D01*
X142517302Y-70277500D01*
X142564922Y-70134642D01*
X142660160Y-70039404D01*
X142755398Y-69991785D01*
X142945874Y-69944166D01*
X143088731Y-69944166D01*
X143279207Y-69991785D01*
X143374445Y-70039404D01*
X143469683Y-70134642D01*
X143517302Y-70277500D01*
X143517302Y-70515595D01*
X142850636Y-69087023D02*
X143517302Y-69087023D01*
X142469683Y-69325119D02*
X143183969Y-69563214D01*
X143183969Y-68944166D01*
X141789880Y-75119404D02*
X140789880Y-75119404D01*
X141789880Y-74547976D02*
X141218452Y-74976547D01*
X140789880Y-74547976D02*
X141361309Y-75119404D01*
%TO.C,R2*%
X89955833Y-86812380D02*
X89622500Y-86336190D01*
X89384404Y-86812380D02*
X89384404Y-85812380D01*
X89765357Y-85812380D01*
X89860595Y-85860000D01*
X89908214Y-85907619D01*
X89955833Y-86002857D01*
X89955833Y-86145714D01*
X89908214Y-86240952D01*
X89860595Y-86288571D01*
X89765357Y-86336190D01*
X89384404Y-86336190D01*
X90336785Y-85907619D02*
X90384404Y-85860000D01*
X90479642Y-85812380D01*
X90717738Y-85812380D01*
X90812976Y-85860000D01*
X90860595Y-85907619D01*
X90908214Y-86002857D01*
X90908214Y-86098095D01*
X90860595Y-86240952D01*
X90289166Y-86812380D01*
X90908214Y-86812380D01*
%TO.C,Q4*%
X149315119Y-59712738D02*
X149267500Y-59807976D01*
X149172261Y-59903214D01*
X149029404Y-60046071D01*
X148981785Y-60141309D01*
X148981785Y-60236547D01*
X149219880Y-60188928D02*
X149172261Y-60284166D01*
X149077023Y-60379404D01*
X148886547Y-60427023D01*
X148553214Y-60427023D01*
X148362738Y-60379404D01*
X148267500Y-60284166D01*
X148219880Y-60188928D01*
X148219880Y-59998452D01*
X148267500Y-59903214D01*
X148362738Y-59807976D01*
X148553214Y-59760357D01*
X148886547Y-59760357D01*
X149077023Y-59807976D01*
X149172261Y-59903214D01*
X149219880Y-59998452D01*
X149219880Y-60188928D01*
X148553214Y-58903214D02*
X149219880Y-58903214D01*
X148172261Y-59141309D02*
X148886547Y-59379404D01*
X148886547Y-58760357D01*
%TO.C,J1*%
X80942380Y-32083333D02*
X81656666Y-32083333D01*
X81799523Y-32130952D01*
X81894761Y-32226190D01*
X81942380Y-32369047D01*
X81942380Y-32464285D01*
X81942380Y-31083333D02*
X81942380Y-31654761D01*
X81942380Y-31369047D02*
X80942380Y-31369047D01*
X81085238Y-31464285D01*
X81180476Y-31559523D01*
X81228095Y-31654761D01*
%TO.C,R32*%
X191079642Y-86739880D02*
X190746309Y-86263690D01*
X190508214Y-86739880D02*
X190508214Y-85739880D01*
X190889166Y-85739880D01*
X190984404Y-85787500D01*
X191032023Y-85835119D01*
X191079642Y-85930357D01*
X191079642Y-86073214D01*
X191032023Y-86168452D01*
X190984404Y-86216071D01*
X190889166Y-86263690D01*
X190508214Y-86263690D01*
X191412976Y-85739880D02*
X192032023Y-85739880D01*
X191698690Y-86120833D01*
X191841547Y-86120833D01*
X191936785Y-86168452D01*
X191984404Y-86216071D01*
X192032023Y-86311309D01*
X192032023Y-86549404D01*
X191984404Y-86644642D01*
X191936785Y-86692261D01*
X191841547Y-86739880D01*
X191555833Y-86739880D01*
X191460595Y-86692261D01*
X191412976Y-86644642D01*
X192412976Y-85835119D02*
X192460595Y-85787500D01*
X192555833Y-85739880D01*
X192793928Y-85739880D01*
X192889166Y-85787500D01*
X192936785Y-85835119D01*
X192984404Y-85930357D01*
X192984404Y-86025595D01*
X192936785Y-86168452D01*
X192365357Y-86739880D01*
X192984404Y-86739880D01*
%TO.C,R23*%
X143962380Y-83192857D02*
X143486190Y-83526190D01*
X143962380Y-83764285D02*
X142962380Y-83764285D01*
X142962380Y-83383333D01*
X143010000Y-83288095D01*
X143057619Y-83240476D01*
X143152857Y-83192857D01*
X143295714Y-83192857D01*
X143390952Y-83240476D01*
X143438571Y-83288095D01*
X143486190Y-83383333D01*
X143486190Y-83764285D01*
X143057619Y-82811904D02*
X143010000Y-82764285D01*
X142962380Y-82669047D01*
X142962380Y-82430952D01*
X143010000Y-82335714D01*
X143057619Y-82288095D01*
X143152857Y-82240476D01*
X143248095Y-82240476D01*
X143390952Y-82288095D01*
X143962380Y-82859523D01*
X143962380Y-82240476D01*
X142962380Y-81907142D02*
X142962380Y-81288095D01*
X143343333Y-81621428D01*
X143343333Y-81478571D01*
X143390952Y-81383333D01*
X143438571Y-81335714D01*
X143533809Y-81288095D01*
X143771904Y-81288095D01*
X143867142Y-81335714D01*
X143914761Y-81383333D01*
X143962380Y-81478571D01*
X143962380Y-81764285D01*
X143914761Y-81859523D01*
X143867142Y-81907142D01*
%TO.C,Q3*%
X129067619Y-59817738D02*
X129020000Y-59912976D01*
X128924761Y-60008214D01*
X128781904Y-60151071D01*
X128734285Y-60246309D01*
X128734285Y-60341547D01*
X128972380Y-60293928D02*
X128924761Y-60389166D01*
X128829523Y-60484404D01*
X128639047Y-60532023D01*
X128305714Y-60532023D01*
X128115238Y-60484404D01*
X128020000Y-60389166D01*
X127972380Y-60293928D01*
X127972380Y-60103452D01*
X128020000Y-60008214D01*
X128115238Y-59912976D01*
X128305714Y-59865357D01*
X128639047Y-59865357D01*
X128829523Y-59912976D01*
X128924761Y-60008214D01*
X128972380Y-60103452D01*
X128972380Y-60293928D01*
X127972380Y-59532023D02*
X127972380Y-58912976D01*
X128353333Y-59246309D01*
X128353333Y-59103452D01*
X128400952Y-59008214D01*
X128448571Y-58960595D01*
X128543809Y-58912976D01*
X128781904Y-58912976D01*
X128877142Y-58960595D01*
X128924761Y-59008214D01*
X128972380Y-59103452D01*
X128972380Y-59389166D01*
X128924761Y-59484404D01*
X128877142Y-59532023D01*
%TO.C,R4*%
X98194880Y-78906666D02*
X97718690Y-79240000D01*
X98194880Y-79478095D02*
X97194880Y-79478095D01*
X97194880Y-79097142D01*
X97242500Y-79001904D01*
X97290119Y-78954285D01*
X97385357Y-78906666D01*
X97528214Y-78906666D01*
X97623452Y-78954285D01*
X97671071Y-79001904D01*
X97718690Y-79097142D01*
X97718690Y-79478095D01*
X97528214Y-78049523D02*
X98194880Y-78049523D01*
X97147261Y-78287619D02*
X97861547Y-78525714D01*
X97861547Y-77906666D01*
%TO.C,R18*%
X130119642Y-94432380D02*
X129786309Y-93956190D01*
X129548214Y-94432380D02*
X129548214Y-93432380D01*
X129929166Y-93432380D01*
X130024404Y-93480000D01*
X130072023Y-93527619D01*
X130119642Y-93622857D01*
X130119642Y-93765714D01*
X130072023Y-93860952D01*
X130024404Y-93908571D01*
X129929166Y-93956190D01*
X129548214Y-93956190D01*
X131072023Y-94432380D02*
X130500595Y-94432380D01*
X130786309Y-94432380D02*
X130786309Y-93432380D01*
X130691071Y-93575238D01*
X130595833Y-93670476D01*
X130500595Y-93718095D01*
X131643452Y-93860952D02*
X131548214Y-93813333D01*
X131500595Y-93765714D01*
X131452976Y-93670476D01*
X131452976Y-93622857D01*
X131500595Y-93527619D01*
X131548214Y-93480000D01*
X131643452Y-93432380D01*
X131833928Y-93432380D01*
X131929166Y-93480000D01*
X131976785Y-93527619D01*
X132024404Y-93622857D01*
X132024404Y-93670476D01*
X131976785Y-93765714D01*
X131929166Y-93813333D01*
X131833928Y-93860952D01*
X131643452Y-93860952D01*
X131548214Y-93908571D01*
X131500595Y-93956190D01*
X131452976Y-94051428D01*
X131452976Y-94241904D01*
X131500595Y-94337142D01*
X131548214Y-94384761D01*
X131643452Y-94432380D01*
X131833928Y-94432380D01*
X131929166Y-94384761D01*
X131976785Y-94337142D01*
X132024404Y-94241904D01*
X132024404Y-94051428D01*
X131976785Y-93956190D01*
X131929166Y-93908571D01*
X131833928Y-93860952D01*
%TO.C,R36*%
X191079642Y-94359880D02*
X190746309Y-93883690D01*
X190508214Y-94359880D02*
X190508214Y-93359880D01*
X190889166Y-93359880D01*
X190984404Y-93407500D01*
X191032023Y-93455119D01*
X191079642Y-93550357D01*
X191079642Y-93693214D01*
X191032023Y-93788452D01*
X190984404Y-93836071D01*
X190889166Y-93883690D01*
X190508214Y-93883690D01*
X191412976Y-93359880D02*
X192032023Y-93359880D01*
X191698690Y-93740833D01*
X191841547Y-93740833D01*
X191936785Y-93788452D01*
X191984404Y-93836071D01*
X192032023Y-93931309D01*
X192032023Y-94169404D01*
X191984404Y-94264642D01*
X191936785Y-94312261D01*
X191841547Y-94359880D01*
X191555833Y-94359880D01*
X191460595Y-94312261D01*
X191412976Y-94264642D01*
X192889166Y-93359880D02*
X192698690Y-93359880D01*
X192603452Y-93407500D01*
X192555833Y-93455119D01*
X192460595Y-93597976D01*
X192412976Y-93788452D01*
X192412976Y-94169404D01*
X192460595Y-94264642D01*
X192508214Y-94312261D01*
X192603452Y-94359880D01*
X192793928Y-94359880D01*
X192889166Y-94312261D01*
X192936785Y-94264642D01*
X192984404Y-94169404D01*
X192984404Y-93931309D01*
X192936785Y-93836071D01*
X192889166Y-93788452D01*
X192793928Y-93740833D01*
X192603452Y-93740833D01*
X192508214Y-93788452D01*
X192460595Y-93836071D01*
X192412976Y-93931309D01*
%TO.C,R31*%
X199867380Y-90812857D02*
X199391190Y-91146190D01*
X199867380Y-91384285D02*
X198867380Y-91384285D01*
X198867380Y-91003333D01*
X198915000Y-90908095D01*
X198962619Y-90860476D01*
X199057857Y-90812857D01*
X199200714Y-90812857D01*
X199295952Y-90860476D01*
X199343571Y-90908095D01*
X199391190Y-91003333D01*
X199391190Y-91384285D01*
X198867380Y-90479523D02*
X198867380Y-89860476D01*
X199248333Y-90193809D01*
X199248333Y-90050952D01*
X199295952Y-89955714D01*
X199343571Y-89908095D01*
X199438809Y-89860476D01*
X199676904Y-89860476D01*
X199772142Y-89908095D01*
X199819761Y-89955714D01*
X199867380Y-90050952D01*
X199867380Y-90336666D01*
X199819761Y-90431904D01*
X199772142Y-90479523D01*
X199867380Y-88908095D02*
X199867380Y-89479523D01*
X199867380Y-89193809D02*
X198867380Y-89193809D01*
X199010238Y-89289047D01*
X199105476Y-89384285D01*
X199153095Y-89479523D01*
%TO.C,R24*%
X150439642Y-94432380D02*
X150106309Y-93956190D01*
X149868214Y-94432380D02*
X149868214Y-93432380D01*
X150249166Y-93432380D01*
X150344404Y-93480000D01*
X150392023Y-93527619D01*
X150439642Y-93622857D01*
X150439642Y-93765714D01*
X150392023Y-93860952D01*
X150344404Y-93908571D01*
X150249166Y-93956190D01*
X149868214Y-93956190D01*
X150820595Y-93527619D02*
X150868214Y-93480000D01*
X150963452Y-93432380D01*
X151201547Y-93432380D01*
X151296785Y-93480000D01*
X151344404Y-93527619D01*
X151392023Y-93622857D01*
X151392023Y-93718095D01*
X151344404Y-93860952D01*
X150772976Y-94432380D01*
X151392023Y-94432380D01*
X152249166Y-93765714D02*
X152249166Y-94432380D01*
X152011071Y-93384761D02*
X151772976Y-94099047D01*
X152392023Y-94099047D01*
%TO.C,R16*%
X138834880Y-79382857D02*
X138358690Y-79716190D01*
X138834880Y-79954285D02*
X137834880Y-79954285D01*
X137834880Y-79573333D01*
X137882500Y-79478095D01*
X137930119Y-79430476D01*
X138025357Y-79382857D01*
X138168214Y-79382857D01*
X138263452Y-79430476D01*
X138311071Y-79478095D01*
X138358690Y-79573333D01*
X138358690Y-79954285D01*
X138834880Y-78430476D02*
X138834880Y-79001904D01*
X138834880Y-78716190D02*
X137834880Y-78716190D01*
X137977738Y-78811428D01*
X138072976Y-78906666D01*
X138120595Y-79001904D01*
X137834880Y-77573333D02*
X137834880Y-77763809D01*
X137882500Y-77859047D01*
X137930119Y-77906666D01*
X138072976Y-78001904D01*
X138263452Y-78049523D01*
X138644404Y-78049523D01*
X138739642Y-78001904D01*
X138787261Y-77954285D01*
X138834880Y-77859047D01*
X138834880Y-77668571D01*
X138787261Y-77573333D01*
X138739642Y-77525714D01*
X138644404Y-77478095D01*
X138406309Y-77478095D01*
X138311071Y-77525714D01*
X138263452Y-77573333D01*
X138215833Y-77668571D01*
X138215833Y-77859047D01*
X138263452Y-77954285D01*
X138311071Y-78001904D01*
X138406309Y-78049523D01*
%TO.C,R10*%
X118562380Y-79382857D02*
X118086190Y-79716190D01*
X118562380Y-79954285D02*
X117562380Y-79954285D01*
X117562380Y-79573333D01*
X117610000Y-79478095D01*
X117657619Y-79430476D01*
X117752857Y-79382857D01*
X117895714Y-79382857D01*
X117990952Y-79430476D01*
X118038571Y-79478095D01*
X118086190Y-79573333D01*
X118086190Y-79954285D01*
X118562380Y-78430476D02*
X118562380Y-79001904D01*
X118562380Y-78716190D02*
X117562380Y-78716190D01*
X117705238Y-78811428D01*
X117800476Y-78906666D01*
X117848095Y-79001904D01*
X117562380Y-77811428D02*
X117562380Y-77716190D01*
X117610000Y-77620952D01*
X117657619Y-77573333D01*
X117752857Y-77525714D01*
X117943333Y-77478095D01*
X118181428Y-77478095D01*
X118371904Y-77525714D01*
X118467142Y-77573333D01*
X118514761Y-77620952D01*
X118562380Y-77716190D01*
X118562380Y-77811428D01*
X118514761Y-77906666D01*
X118467142Y-77954285D01*
X118371904Y-78001904D01*
X118181428Y-78049523D01*
X117943333Y-78049523D01*
X117752857Y-78001904D01*
X117657619Y-77954285D01*
X117610000Y-77906666D01*
X117562380Y-77811428D01*
%TO.C,R1*%
X98194880Y-92876666D02*
X97718690Y-93210000D01*
X98194880Y-93448095D02*
X97194880Y-93448095D01*
X97194880Y-93067142D01*
X97242500Y-92971904D01*
X97290119Y-92924285D01*
X97385357Y-92876666D01*
X97528214Y-92876666D01*
X97623452Y-92924285D01*
X97671071Y-92971904D01*
X97718690Y-93067142D01*
X97718690Y-93448095D01*
X98194880Y-91924285D02*
X98194880Y-92495714D01*
X98194880Y-92210000D02*
X97194880Y-92210000D01*
X97337738Y-92305238D01*
X97432976Y-92400476D01*
X97480595Y-92495714D01*
%TO.C,R5*%
X82954880Y-81446666D02*
X82478690Y-81780000D01*
X82954880Y-82018095D02*
X81954880Y-82018095D01*
X81954880Y-81637142D01*
X82002500Y-81541904D01*
X82050119Y-81494285D01*
X82145357Y-81446666D01*
X82288214Y-81446666D01*
X82383452Y-81494285D01*
X82431071Y-81541904D01*
X82478690Y-81637142D01*
X82478690Y-82018095D01*
X81954880Y-80541904D02*
X81954880Y-81018095D01*
X82431071Y-81065714D01*
X82383452Y-81018095D01*
X82335833Y-80922857D01*
X82335833Y-80684761D01*
X82383452Y-80589523D01*
X82431071Y-80541904D01*
X82526309Y-80494285D01*
X82764404Y-80494285D01*
X82859642Y-80541904D01*
X82907261Y-80589523D01*
X82954880Y-80684761D01*
X82954880Y-80922857D01*
X82907261Y-81018095D01*
X82859642Y-81065714D01*
%TO.C,R35*%
X184482380Y-83192857D02*
X184006190Y-83526190D01*
X184482380Y-83764285D02*
X183482380Y-83764285D01*
X183482380Y-83383333D01*
X183530000Y-83288095D01*
X183577619Y-83240476D01*
X183672857Y-83192857D01*
X183815714Y-83192857D01*
X183910952Y-83240476D01*
X183958571Y-83288095D01*
X184006190Y-83383333D01*
X184006190Y-83764285D01*
X183482380Y-82859523D02*
X183482380Y-82240476D01*
X183863333Y-82573809D01*
X183863333Y-82430952D01*
X183910952Y-82335714D01*
X183958571Y-82288095D01*
X184053809Y-82240476D01*
X184291904Y-82240476D01*
X184387142Y-82288095D01*
X184434761Y-82335714D01*
X184482380Y-82430952D01*
X184482380Y-82716666D01*
X184434761Y-82811904D01*
X184387142Y-82859523D01*
X183482380Y-81335714D02*
X183482380Y-81811904D01*
X183958571Y-81859523D01*
X183910952Y-81811904D01*
X183863333Y-81716666D01*
X183863333Y-81478571D01*
X183910952Y-81383333D01*
X183958571Y-81335714D01*
X184053809Y-81288095D01*
X184291904Y-81288095D01*
X184387142Y-81335714D01*
X184434761Y-81383333D01*
X184482380Y-81478571D01*
X184482380Y-81716666D01*
X184434761Y-81811904D01*
X184387142Y-81859523D01*
%TO.C,R13*%
X138834880Y-90812857D02*
X138358690Y-91146190D01*
X138834880Y-91384285D02*
X137834880Y-91384285D01*
X137834880Y-91003333D01*
X137882500Y-90908095D01*
X137930119Y-90860476D01*
X138025357Y-90812857D01*
X138168214Y-90812857D01*
X138263452Y-90860476D01*
X138311071Y-90908095D01*
X138358690Y-91003333D01*
X138358690Y-91384285D01*
X138834880Y-89860476D02*
X138834880Y-90431904D01*
X138834880Y-90146190D02*
X137834880Y-90146190D01*
X137977738Y-90241428D01*
X138072976Y-90336666D01*
X138120595Y-90431904D01*
X137834880Y-89527142D02*
X137834880Y-88908095D01*
X138215833Y-89241428D01*
X138215833Y-89098571D01*
X138263452Y-89003333D01*
X138311071Y-88955714D01*
X138406309Y-88908095D01*
X138644404Y-88908095D01*
X138739642Y-88955714D01*
X138787261Y-89003333D01*
X138834880Y-89098571D01*
X138834880Y-89384285D01*
X138787261Y-89479523D01*
X138739642Y-89527142D01*
%TO.C,R27*%
X170759642Y-90622380D02*
X170426309Y-90146190D01*
X170188214Y-90622380D02*
X170188214Y-89622380D01*
X170569166Y-89622380D01*
X170664404Y-89670000D01*
X170712023Y-89717619D01*
X170759642Y-89812857D01*
X170759642Y-89955714D01*
X170712023Y-90050952D01*
X170664404Y-90098571D01*
X170569166Y-90146190D01*
X170188214Y-90146190D01*
X171140595Y-89717619D02*
X171188214Y-89670000D01*
X171283452Y-89622380D01*
X171521547Y-89622380D01*
X171616785Y-89670000D01*
X171664404Y-89717619D01*
X171712023Y-89812857D01*
X171712023Y-89908095D01*
X171664404Y-90050952D01*
X171092976Y-90622380D01*
X171712023Y-90622380D01*
X172045357Y-89622380D02*
X172712023Y-89622380D01*
X172283452Y-90622380D01*
%TO.C,R22*%
X160377380Y-84462857D02*
X159901190Y-84796190D01*
X160377380Y-85034285D02*
X159377380Y-85034285D01*
X159377380Y-84653333D01*
X159425000Y-84558095D01*
X159472619Y-84510476D01*
X159567857Y-84462857D01*
X159710714Y-84462857D01*
X159805952Y-84510476D01*
X159853571Y-84558095D01*
X159901190Y-84653333D01*
X159901190Y-85034285D01*
X159472619Y-84081904D02*
X159425000Y-84034285D01*
X159377380Y-83939047D01*
X159377380Y-83700952D01*
X159425000Y-83605714D01*
X159472619Y-83558095D01*
X159567857Y-83510476D01*
X159663095Y-83510476D01*
X159805952Y-83558095D01*
X160377380Y-84129523D01*
X160377380Y-83510476D01*
X159472619Y-83129523D02*
X159425000Y-83081904D01*
X159377380Y-82986666D01*
X159377380Y-82748571D01*
X159425000Y-82653333D01*
X159472619Y-82605714D01*
X159567857Y-82558095D01*
X159663095Y-82558095D01*
X159805952Y-82605714D01*
X160377380Y-83177142D01*
X160377380Y-82558095D01*
%TO.C,R30*%
X170759642Y-94262379D02*
X170426309Y-93786189D01*
X170188214Y-94262379D02*
X170188214Y-93262379D01*
X170569166Y-93262379D01*
X170664404Y-93309999D01*
X170712023Y-93357618D01*
X170759642Y-93452856D01*
X170759642Y-93595713D01*
X170712023Y-93690951D01*
X170664404Y-93738570D01*
X170569166Y-93786189D01*
X170188214Y-93786189D01*
X171092976Y-93262379D02*
X171712023Y-93262379D01*
X171378690Y-93643332D01*
X171521547Y-93643332D01*
X171616785Y-93690951D01*
X171664404Y-93738570D01*
X171712023Y-93833808D01*
X171712023Y-94071903D01*
X171664404Y-94167141D01*
X171616785Y-94214760D01*
X171521547Y-94262379D01*
X171235833Y-94262379D01*
X171140595Y-94214760D01*
X171092976Y-94167141D01*
X172331071Y-93262379D02*
X172426309Y-93262379D01*
X172521547Y-93309999D01*
X172569166Y-93357618D01*
X172616785Y-93452856D01*
X172664404Y-93643332D01*
X172664404Y-93881427D01*
X172616785Y-94071903D01*
X172569166Y-94167141D01*
X172521547Y-94214760D01*
X172426309Y-94262379D01*
X172331071Y-94262379D01*
X172235833Y-94214760D01*
X172188214Y-94167141D01*
X172140595Y-94071903D01*
X172092976Y-93881427D01*
X172092976Y-93643332D01*
X172140595Y-93452856D01*
X172188214Y-93357618D01*
X172235833Y-93309999D01*
X172331071Y-93262379D01*
%TO.C,R38*%
X102179642Y-60142380D02*
X101846309Y-59666190D01*
X101608214Y-60142380D02*
X101608214Y-59142380D01*
X101989166Y-59142380D01*
X102084404Y-59190000D01*
X102132023Y-59237619D01*
X102179642Y-59332857D01*
X102179642Y-59475714D01*
X102132023Y-59570952D01*
X102084404Y-59618571D01*
X101989166Y-59666190D01*
X101608214Y-59666190D01*
X102512976Y-59142380D02*
X103132023Y-59142380D01*
X102798690Y-59523333D01*
X102941547Y-59523333D01*
X103036785Y-59570952D01*
X103084404Y-59618571D01*
X103132023Y-59713809D01*
X103132023Y-59951904D01*
X103084404Y-60047142D01*
X103036785Y-60094761D01*
X102941547Y-60142380D01*
X102655833Y-60142380D01*
X102560595Y-60094761D01*
X102512976Y-60047142D01*
X103703452Y-59570952D02*
X103608214Y-59523333D01*
X103560595Y-59475714D01*
X103512976Y-59380476D01*
X103512976Y-59332857D01*
X103560595Y-59237619D01*
X103608214Y-59190000D01*
X103703452Y-59142380D01*
X103893928Y-59142380D01*
X103989166Y-59190000D01*
X104036785Y-59237619D01*
X104084404Y-59332857D01*
X104084404Y-59380476D01*
X104036785Y-59475714D01*
X103989166Y-59523333D01*
X103893928Y-59570952D01*
X103703452Y-59570952D01*
X103608214Y-59618571D01*
X103560595Y-59666190D01*
X103512976Y-59761428D01*
X103512976Y-59951904D01*
X103560595Y-60047142D01*
X103608214Y-60094761D01*
X103703452Y-60142380D01*
X103893928Y-60142380D01*
X103989166Y-60094761D01*
X104036785Y-60047142D01*
X104084404Y-59951904D01*
X104084404Y-59761428D01*
X104036785Y-59666190D01*
X103989166Y-59618571D01*
X103893928Y-59570952D01*
%TO.C,R41*%
X163139642Y-60142380D02*
X162806309Y-59666190D01*
X162568214Y-60142380D02*
X162568214Y-59142380D01*
X162949166Y-59142380D01*
X163044404Y-59190000D01*
X163092023Y-59237619D01*
X163139642Y-59332857D01*
X163139642Y-59475714D01*
X163092023Y-59570952D01*
X163044404Y-59618571D01*
X162949166Y-59666190D01*
X162568214Y-59666190D01*
X163996785Y-59475714D02*
X163996785Y-60142380D01*
X163758690Y-59094761D02*
X163520595Y-59809047D01*
X164139642Y-59809047D01*
X165044404Y-60142380D02*
X164472976Y-60142380D01*
X164758690Y-60142380D02*
X164758690Y-59142380D01*
X164663452Y-59285238D01*
X164568214Y-59380476D01*
X164472976Y-59428095D01*
%TO.C,D1*%
X82954880Y-70588095D02*
X81954880Y-70588095D01*
X81954880Y-70350000D01*
X82002500Y-70207142D01*
X82097738Y-70111904D01*
X82192976Y-70064285D01*
X82383452Y-70016666D01*
X82526309Y-70016666D01*
X82716785Y-70064285D01*
X82812023Y-70111904D01*
X82907261Y-70207142D01*
X82954880Y-70350000D01*
X82954880Y-70588095D01*
X82954880Y-69064285D02*
X82954880Y-69635714D01*
X82954880Y-69350000D02*
X81954880Y-69350000D01*
X82097738Y-69445238D01*
X82192976Y-69540476D01*
X82240595Y-69635714D01*
X82954880Y-73341904D02*
X81954880Y-73341904D01*
X82954880Y-72770476D02*
X82383452Y-73199047D01*
X81954880Y-72770476D02*
X82526309Y-73341904D01*
%TO.C,R3*%
X89955833Y-90622380D02*
X89622500Y-90146190D01*
X89384404Y-90622380D02*
X89384404Y-89622380D01*
X89765357Y-89622380D01*
X89860595Y-89670000D01*
X89908214Y-89717619D01*
X89955833Y-89812857D01*
X89955833Y-89955714D01*
X89908214Y-90050952D01*
X89860595Y-90098571D01*
X89765357Y-90146190D01*
X89384404Y-90146190D01*
X90289166Y-89622380D02*
X90908214Y-89622380D01*
X90574880Y-90003333D01*
X90717738Y-90003333D01*
X90812976Y-90050952D01*
X90860595Y-90098571D01*
X90908214Y-90193809D01*
X90908214Y-90431904D01*
X90860595Y-90527142D01*
X90812976Y-90574761D01*
X90717738Y-90622380D01*
X90432023Y-90622380D01*
X90336785Y-90574761D01*
X90289166Y-90527142D01*
%TO.C,R42*%
X183459642Y-60142380D02*
X183126309Y-59666190D01*
X182888214Y-60142380D02*
X182888214Y-59142380D01*
X183269166Y-59142380D01*
X183364404Y-59190000D01*
X183412023Y-59237619D01*
X183459642Y-59332857D01*
X183459642Y-59475714D01*
X183412023Y-59570952D01*
X183364404Y-59618571D01*
X183269166Y-59666190D01*
X182888214Y-59666190D01*
X184316785Y-59475714D02*
X184316785Y-60142380D01*
X184078690Y-59094761D02*
X183840595Y-59809047D01*
X184459642Y-59809047D01*
X184792976Y-59237619D02*
X184840595Y-59190000D01*
X184935833Y-59142380D01*
X185173928Y-59142380D01*
X185269166Y-59190000D01*
X185316785Y-59237619D01*
X185364404Y-59332857D01*
X185364404Y-59428095D01*
X185316785Y-59570952D01*
X184745357Y-60142380D01*
X185364404Y-60142380D01*
%TO.C,R33*%
X191079642Y-90622380D02*
X190746309Y-90146190D01*
X190508214Y-90622380D02*
X190508214Y-89622380D01*
X190889166Y-89622380D01*
X190984404Y-89670000D01*
X191032023Y-89717619D01*
X191079642Y-89812857D01*
X191079642Y-89955714D01*
X191032023Y-90050952D01*
X190984404Y-90098571D01*
X190889166Y-90146190D01*
X190508214Y-90146190D01*
X191412976Y-89622380D02*
X192032023Y-89622380D01*
X191698690Y-90003333D01*
X191841547Y-90003333D01*
X191936785Y-90050952D01*
X191984404Y-90098571D01*
X192032023Y-90193809D01*
X192032023Y-90431904D01*
X191984404Y-90527142D01*
X191936785Y-90574761D01*
X191841547Y-90622380D01*
X191555833Y-90622380D01*
X191460595Y-90574761D01*
X191412976Y-90527142D01*
X192365357Y-89622380D02*
X192984404Y-89622380D01*
X192651071Y-90003333D01*
X192793928Y-90003333D01*
X192889166Y-90050952D01*
X192936785Y-90098571D01*
X192984404Y-90193809D01*
X192984404Y-90431904D01*
X192936785Y-90527142D01*
X192889166Y-90574761D01*
X192793928Y-90622380D01*
X192508214Y-90622380D01*
X192412976Y-90574761D01*
X192365357Y-90527142D01*
%TO.C,R34*%
X199794880Y-79382857D02*
X199318690Y-79716190D01*
X199794880Y-79954285D02*
X198794880Y-79954285D01*
X198794880Y-79573333D01*
X198842500Y-79478095D01*
X198890119Y-79430476D01*
X198985357Y-79382857D01*
X199128214Y-79382857D01*
X199223452Y-79430476D01*
X199271071Y-79478095D01*
X199318690Y-79573333D01*
X199318690Y-79954285D01*
X198794880Y-79049523D02*
X198794880Y-78430476D01*
X199175833Y-78763809D01*
X199175833Y-78620952D01*
X199223452Y-78525714D01*
X199271071Y-78478095D01*
X199366309Y-78430476D01*
X199604404Y-78430476D01*
X199699642Y-78478095D01*
X199747261Y-78525714D01*
X199794880Y-78620952D01*
X199794880Y-78906666D01*
X199747261Y-79001904D01*
X199699642Y-79049523D01*
X199128214Y-77573333D02*
X199794880Y-77573333D01*
X198747261Y-77811428D02*
X199461547Y-78049523D01*
X199461547Y-77430476D01*
%TO.C,Q1*%
X88380119Y-59785238D02*
X88332500Y-59880476D01*
X88237261Y-59975714D01*
X88094404Y-60118571D01*
X88046785Y-60213809D01*
X88046785Y-60309047D01*
X88284880Y-60261428D02*
X88237261Y-60356666D01*
X88142023Y-60451904D01*
X87951547Y-60499523D01*
X87618214Y-60499523D01*
X87427738Y-60451904D01*
X87332500Y-60356666D01*
X87284880Y-60261428D01*
X87284880Y-60070952D01*
X87332500Y-59975714D01*
X87427738Y-59880476D01*
X87618214Y-59832857D01*
X87951547Y-59832857D01*
X88142023Y-59880476D01*
X88237261Y-59975714D01*
X88284880Y-60070952D01*
X88284880Y-60261428D01*
X88284880Y-58880476D02*
X88284880Y-59451904D01*
X88284880Y-59166190D02*
X87284880Y-59166190D01*
X87427738Y-59261428D01*
X87522976Y-59356666D01*
X87570595Y-59451904D01*
%TO.C,R21*%
X150439642Y-90622380D02*
X150106309Y-90146190D01*
X149868214Y-90622380D02*
X149868214Y-89622380D01*
X150249166Y-89622380D01*
X150344404Y-89670000D01*
X150392023Y-89717619D01*
X150439642Y-89812857D01*
X150439642Y-89955714D01*
X150392023Y-90050952D01*
X150344404Y-90098571D01*
X150249166Y-90146190D01*
X149868214Y-90146190D01*
X150820595Y-89717619D02*
X150868214Y-89670000D01*
X150963452Y-89622380D01*
X151201547Y-89622380D01*
X151296785Y-89670000D01*
X151344404Y-89717619D01*
X151392023Y-89812857D01*
X151392023Y-89908095D01*
X151344404Y-90050952D01*
X150772976Y-90622380D01*
X151392023Y-90622380D01*
X152344404Y-90622380D02*
X151772976Y-90622380D01*
X152058690Y-90622380D02*
X152058690Y-89622380D01*
X151963452Y-89765238D01*
X151868214Y-89860476D01*
X151772976Y-89908095D01*
%TO.C,R25*%
X179474880Y-90812857D02*
X178998690Y-91146190D01*
X179474880Y-91384285D02*
X178474880Y-91384285D01*
X178474880Y-91003333D01*
X178522500Y-90908095D01*
X178570119Y-90860476D01*
X178665357Y-90812857D01*
X178808214Y-90812857D01*
X178903452Y-90860476D01*
X178951071Y-90908095D01*
X178998690Y-91003333D01*
X178998690Y-91384285D01*
X178570119Y-90431904D02*
X178522500Y-90384285D01*
X178474880Y-90289047D01*
X178474880Y-90050952D01*
X178522500Y-89955714D01*
X178570119Y-89908095D01*
X178665357Y-89860476D01*
X178760595Y-89860476D01*
X178903452Y-89908095D01*
X179474880Y-90479523D01*
X179474880Y-89860476D01*
X178474880Y-88955714D02*
X178474880Y-89431904D01*
X178951071Y-89479523D01*
X178903452Y-89431904D01*
X178855833Y-89336666D01*
X178855833Y-89098571D01*
X178903452Y-89003333D01*
X178951071Y-88955714D01*
X179046309Y-88908095D01*
X179284404Y-88908095D01*
X179379642Y-88955714D01*
X179427261Y-89003333D01*
X179474880Y-89098571D01*
X179474880Y-89336666D01*
X179427261Y-89431904D01*
X179379642Y-89479523D01*
%TO.C,R17*%
X127352380Y-66715357D02*
X126876190Y-67048690D01*
X127352380Y-67286785D02*
X126352380Y-67286785D01*
X126352380Y-66905833D01*
X126400000Y-66810595D01*
X126447619Y-66762976D01*
X126542857Y-66715357D01*
X126685714Y-66715357D01*
X126780952Y-66762976D01*
X126828571Y-66810595D01*
X126876190Y-66905833D01*
X126876190Y-67286785D01*
X127352380Y-65762976D02*
X127352380Y-66334404D01*
X127352380Y-66048690D02*
X126352380Y-66048690D01*
X126495238Y-66143928D01*
X126590476Y-66239166D01*
X126638095Y-66334404D01*
X126352380Y-65429642D02*
X126352380Y-64762976D01*
X127352380Y-65191547D01*
%TO.C,D5*%
X164234880Y-70588095D02*
X163234880Y-70588095D01*
X163234880Y-70350000D01*
X163282500Y-70207142D01*
X163377738Y-70111904D01*
X163472976Y-70064285D01*
X163663452Y-70016666D01*
X163806309Y-70016666D01*
X163996785Y-70064285D01*
X164092023Y-70111904D01*
X164187261Y-70207142D01*
X164234880Y-70350000D01*
X164234880Y-70588095D01*
X163234880Y-69111904D02*
X163234880Y-69588095D01*
X163711071Y-69635714D01*
X163663452Y-69588095D01*
X163615833Y-69492857D01*
X163615833Y-69254761D01*
X163663452Y-69159523D01*
X163711071Y-69111904D01*
X163806309Y-69064285D01*
X164044404Y-69064285D01*
X164139642Y-69111904D01*
X164187261Y-69159523D01*
X164234880Y-69254761D01*
X164234880Y-69492857D01*
X164187261Y-69588095D01*
X164139642Y-69635714D01*
X162134880Y-75191904D02*
X161134880Y-75191904D01*
X162134880Y-74620476D02*
X161563452Y-75049047D01*
X161134880Y-74620476D02*
X161706309Y-75191904D01*
%TO.C,R15*%
X130119642Y-90622380D02*
X129786309Y-90146190D01*
X129548214Y-90622380D02*
X129548214Y-89622380D01*
X129929166Y-89622380D01*
X130024404Y-89670000D01*
X130072023Y-89717619D01*
X130119642Y-89812857D01*
X130119642Y-89955714D01*
X130072023Y-90050952D01*
X130024404Y-90098571D01*
X129929166Y-90146190D01*
X129548214Y-90146190D01*
X131072023Y-90622380D02*
X130500595Y-90622380D01*
X130786309Y-90622380D02*
X130786309Y-89622380D01*
X130691071Y-89765238D01*
X130595833Y-89860476D01*
X130500595Y-89908095D01*
X131976785Y-89622380D02*
X131500595Y-89622380D01*
X131452976Y-90098571D01*
X131500595Y-90050952D01*
X131595833Y-90003333D01*
X131833928Y-90003333D01*
X131929166Y-90050952D01*
X131976785Y-90098571D01*
X132024404Y-90193809D01*
X132024404Y-90431904D01*
X131976785Y-90527142D01*
X131929166Y-90574761D01*
X131833928Y-90622380D01*
X131595833Y-90622380D01*
X131500595Y-90574761D01*
X131452976Y-90527142D01*
%TO.C,R14*%
X130119642Y-86812380D02*
X129786309Y-86336190D01*
X129548214Y-86812380D02*
X129548214Y-85812380D01*
X129929166Y-85812380D01*
X130024404Y-85860000D01*
X130072023Y-85907619D01*
X130119642Y-86002857D01*
X130119642Y-86145714D01*
X130072023Y-86240952D01*
X130024404Y-86288571D01*
X129929166Y-86336190D01*
X129548214Y-86336190D01*
X131072023Y-86812380D02*
X130500595Y-86812380D01*
X130786309Y-86812380D02*
X130786309Y-85812380D01*
X130691071Y-85955238D01*
X130595833Y-86050476D01*
X130500595Y-86098095D01*
X131929166Y-86145714D02*
X131929166Y-86812380D01*
X131691071Y-85764761D02*
X131452976Y-86479047D01*
X132072023Y-86479047D01*
%TO.C,D3*%
X123642380Y-70620595D02*
X122642380Y-70620595D01*
X122642380Y-70382500D01*
X122690000Y-70239642D01*
X122785238Y-70144404D01*
X122880476Y-70096785D01*
X123070952Y-70049166D01*
X123213809Y-70049166D01*
X123404285Y-70096785D01*
X123499523Y-70144404D01*
X123594761Y-70239642D01*
X123642380Y-70382500D01*
X123642380Y-70620595D01*
X122642380Y-69715833D02*
X122642380Y-69096785D01*
X123023333Y-69430119D01*
X123023333Y-69287261D01*
X123070952Y-69192023D01*
X123118571Y-69144404D01*
X123213809Y-69096785D01*
X123451904Y-69096785D01*
X123547142Y-69144404D01*
X123594761Y-69192023D01*
X123642380Y-69287261D01*
X123642380Y-69572976D01*
X123594761Y-69668214D01*
X123547142Y-69715833D01*
X123642380Y-73374404D02*
X122642380Y-73374404D01*
X123642380Y-72802976D02*
X123070952Y-73231547D01*
X122642380Y-72802976D02*
X123213809Y-73374404D01*
%TO.C,R29*%
X164234880Y-83192857D02*
X163758690Y-83526190D01*
X164234880Y-83764285D02*
X163234880Y-83764285D01*
X163234880Y-83383333D01*
X163282500Y-83288095D01*
X163330119Y-83240476D01*
X163425357Y-83192857D01*
X163568214Y-83192857D01*
X163663452Y-83240476D01*
X163711071Y-83288095D01*
X163758690Y-83383333D01*
X163758690Y-83764285D01*
X163330119Y-82811904D02*
X163282500Y-82764285D01*
X163234880Y-82669047D01*
X163234880Y-82430952D01*
X163282500Y-82335714D01*
X163330119Y-82288095D01*
X163425357Y-82240476D01*
X163520595Y-82240476D01*
X163663452Y-82288095D01*
X164234880Y-82859523D01*
X164234880Y-82240476D01*
X164234880Y-81764285D02*
X164234880Y-81573809D01*
X164187261Y-81478571D01*
X164139642Y-81430952D01*
X163996785Y-81335714D01*
X163806309Y-81288095D01*
X163425357Y-81288095D01*
X163330119Y-81335714D01*
X163282500Y-81383333D01*
X163234880Y-81478571D01*
X163234880Y-81669047D01*
X163282500Y-81764285D01*
X163330119Y-81811904D01*
X163425357Y-81859523D01*
X163663452Y-81859523D01*
X163758690Y-81811904D01*
X163806309Y-81764285D01*
X163853928Y-81669047D01*
X163853928Y-81478571D01*
X163806309Y-81383333D01*
X163758690Y-81335714D01*
X163663452Y-81288095D01*
%TO.C,R26*%
X170759642Y-86812380D02*
X170426309Y-86336190D01*
X170188214Y-86812380D02*
X170188214Y-85812380D01*
X170569166Y-85812380D01*
X170664404Y-85860000D01*
X170712023Y-85907619D01*
X170759642Y-86002857D01*
X170759642Y-86145714D01*
X170712023Y-86240952D01*
X170664404Y-86288571D01*
X170569166Y-86336190D01*
X170188214Y-86336190D01*
X171140595Y-85907619D02*
X171188214Y-85860000D01*
X171283452Y-85812380D01*
X171521547Y-85812380D01*
X171616785Y-85860000D01*
X171664404Y-85907619D01*
X171712023Y-86002857D01*
X171712023Y-86098095D01*
X171664404Y-86240952D01*
X171092976Y-86812380D01*
X171712023Y-86812380D01*
X172569166Y-85812380D02*
X172378690Y-85812380D01*
X172283452Y-85860000D01*
X172235833Y-85907619D01*
X172140595Y-86050476D01*
X172092976Y-86240952D01*
X172092976Y-86621904D01*
X172140595Y-86717142D01*
X172188214Y-86764761D01*
X172283452Y-86812380D01*
X172473928Y-86812380D01*
X172569166Y-86764761D01*
X172616785Y-86717142D01*
X172664404Y-86621904D01*
X172664404Y-86383809D01*
X172616785Y-86288571D01*
X172569166Y-86240952D01*
X172473928Y-86193333D01*
X172283452Y-86193333D01*
X172188214Y-86240952D01*
X172140595Y-86288571D01*
X172092976Y-86383809D01*
%TO.C,D6*%
X184482380Y-70588095D02*
X183482380Y-70588095D01*
X183482380Y-70350000D01*
X183530000Y-70207142D01*
X183625238Y-70111904D01*
X183720476Y-70064285D01*
X183910952Y-70016666D01*
X184053809Y-70016666D01*
X184244285Y-70064285D01*
X184339523Y-70111904D01*
X184434761Y-70207142D01*
X184482380Y-70350000D01*
X184482380Y-70588095D01*
X183482380Y-69159523D02*
X183482380Y-69350000D01*
X183530000Y-69445238D01*
X183577619Y-69492857D01*
X183720476Y-69588095D01*
X183910952Y-69635714D01*
X184291904Y-69635714D01*
X184387142Y-69588095D01*
X184434761Y-69540476D01*
X184482380Y-69445238D01*
X184482380Y-69254761D01*
X184434761Y-69159523D01*
X184387142Y-69111904D01*
X184291904Y-69064285D01*
X184053809Y-69064285D01*
X183958571Y-69111904D01*
X183910952Y-69159523D01*
X183863333Y-69254761D01*
X183863333Y-69445238D01*
X183910952Y-69540476D01*
X183958571Y-69588095D01*
X184053809Y-69635714D01*
X182382380Y-75191904D02*
X181382380Y-75191904D01*
X182382380Y-74620476D02*
X181810952Y-75049047D01*
X181382380Y-74620476D02*
X181953809Y-75191904D01*
%TO.C,R9*%
X110323333Y-90622380D02*
X109990000Y-90146190D01*
X109751904Y-90622380D02*
X109751904Y-89622380D01*
X110132857Y-89622380D01*
X110228095Y-89670000D01*
X110275714Y-89717619D01*
X110323333Y-89812857D01*
X110323333Y-89955714D01*
X110275714Y-90050952D01*
X110228095Y-90098571D01*
X110132857Y-90146190D01*
X109751904Y-90146190D01*
X110799523Y-90622380D02*
X110990000Y-90622380D01*
X111085238Y-90574761D01*
X111132857Y-90527142D01*
X111228095Y-90384285D01*
X111275714Y-90193809D01*
X111275714Y-89812857D01*
X111228095Y-89717619D01*
X111180476Y-89670000D01*
X111085238Y-89622380D01*
X110894761Y-89622380D01*
X110799523Y-89670000D01*
X110751904Y-89717619D01*
X110704285Y-89812857D01*
X110704285Y-90050952D01*
X110751904Y-90146190D01*
X110799523Y-90193809D01*
X110894761Y-90241428D01*
X111085238Y-90241428D01*
X111180476Y-90193809D01*
X111228095Y-90146190D01*
X111275714Y-90050952D01*
%TO.C,R12*%
X109847142Y-94432380D02*
X109513809Y-93956190D01*
X109275714Y-94432380D02*
X109275714Y-93432380D01*
X109656666Y-93432380D01*
X109751904Y-93480000D01*
X109799523Y-93527619D01*
X109847142Y-93622857D01*
X109847142Y-93765714D01*
X109799523Y-93860952D01*
X109751904Y-93908571D01*
X109656666Y-93956190D01*
X109275714Y-93956190D01*
X110799523Y-94432380D02*
X110228095Y-94432380D01*
X110513809Y-94432380D02*
X110513809Y-93432380D01*
X110418571Y-93575238D01*
X110323333Y-93670476D01*
X110228095Y-93718095D01*
X111180476Y-93527619D02*
X111228095Y-93480000D01*
X111323333Y-93432380D01*
X111561428Y-93432380D01*
X111656666Y-93480000D01*
X111704285Y-93527619D01*
X111751904Y-93622857D01*
X111751904Y-93718095D01*
X111704285Y-93860952D01*
X111132857Y-94432380D01*
X111751904Y-94432380D01*
%TO.C,D2*%
X103249880Y-70588095D02*
X102249880Y-70588095D01*
X102249880Y-70350000D01*
X102297500Y-70207142D01*
X102392738Y-70111904D01*
X102487976Y-70064285D01*
X102678452Y-70016666D01*
X102821309Y-70016666D01*
X103011785Y-70064285D01*
X103107023Y-70111904D01*
X103202261Y-70207142D01*
X103249880Y-70350000D01*
X103249880Y-70588095D01*
X102345119Y-69635714D02*
X102297500Y-69588095D01*
X102249880Y-69492857D01*
X102249880Y-69254761D01*
X102297500Y-69159523D01*
X102345119Y-69111904D01*
X102440357Y-69064285D01*
X102535595Y-69064285D01*
X102678452Y-69111904D01*
X103249880Y-69683333D01*
X103249880Y-69064285D01*
X103249880Y-72831904D02*
X102249880Y-72831904D01*
X103249880Y-72260476D02*
X102678452Y-72689047D01*
X102249880Y-72260476D02*
X102821309Y-72831904D01*
%TO.C,R7*%
X118562380Y-90336666D02*
X118086190Y-90670000D01*
X118562380Y-90908095D02*
X117562380Y-90908095D01*
X117562380Y-90527142D01*
X117610000Y-90431904D01*
X117657619Y-90384285D01*
X117752857Y-90336666D01*
X117895714Y-90336666D01*
X117990952Y-90384285D01*
X118038571Y-90431904D01*
X118086190Y-90527142D01*
X118086190Y-90908095D01*
X117562380Y-90003333D02*
X117562380Y-89336666D01*
X118562380Y-89765238D01*
%TO.C,R28*%
X181844880Y-79382857D02*
X181368690Y-79716190D01*
X181844880Y-79954285D02*
X180844880Y-79954285D01*
X180844880Y-79573333D01*
X180892500Y-79478095D01*
X180940119Y-79430476D01*
X181035357Y-79382857D01*
X181178214Y-79382857D01*
X181273452Y-79430476D01*
X181321071Y-79478095D01*
X181368690Y-79573333D01*
X181368690Y-79954285D01*
X180940119Y-79001904D02*
X180892500Y-78954285D01*
X180844880Y-78859047D01*
X180844880Y-78620952D01*
X180892500Y-78525714D01*
X180940119Y-78478095D01*
X181035357Y-78430476D01*
X181130595Y-78430476D01*
X181273452Y-78478095D01*
X181844880Y-79049523D01*
X181844880Y-78430476D01*
X181273452Y-77859047D02*
X181225833Y-77954285D01*
X181178214Y-78001904D01*
X181082976Y-78049523D01*
X181035357Y-78049523D01*
X180940119Y-78001904D01*
X180892500Y-77954285D01*
X180844880Y-77859047D01*
X180844880Y-77668571D01*
X180892500Y-77573333D01*
X180940119Y-77525714D01*
X181035357Y-77478095D01*
X181082976Y-77478095D01*
X181178214Y-77525714D01*
X181225833Y-77573333D01*
X181273452Y-77668571D01*
X181273452Y-77859047D01*
X181321071Y-77954285D01*
X181368690Y-78001904D01*
X181463928Y-78049523D01*
X181654404Y-78049523D01*
X181749642Y-78001904D01*
X181797261Y-77954285D01*
X181844880Y-77859047D01*
X181844880Y-77668571D01*
X181797261Y-77573333D01*
X181749642Y-77525714D01*
X181654404Y-77478095D01*
X181463928Y-77478095D01*
X181368690Y-77525714D01*
X181321071Y-77573333D01*
X181273452Y-77668571D01*
%TO.C,R19*%
X159154880Y-90812857D02*
X158678690Y-91146190D01*
X159154880Y-91384285D02*
X158154880Y-91384285D01*
X158154880Y-91003333D01*
X158202500Y-90908095D01*
X158250119Y-90860476D01*
X158345357Y-90812857D01*
X158488214Y-90812857D01*
X158583452Y-90860476D01*
X158631071Y-90908095D01*
X158678690Y-91003333D01*
X158678690Y-91384285D01*
X159154880Y-89860476D02*
X159154880Y-90431904D01*
X159154880Y-90146190D02*
X158154880Y-90146190D01*
X158297738Y-90241428D01*
X158392976Y-90336666D01*
X158440595Y-90431904D01*
X159154880Y-89384285D02*
X159154880Y-89193809D01*
X159107261Y-89098571D01*
X159059642Y-89050952D01*
X158916785Y-88955714D01*
X158726309Y-88908095D01*
X158345357Y-88908095D01*
X158250119Y-88955714D01*
X158202500Y-89003333D01*
X158154880Y-89098571D01*
X158154880Y-89289047D01*
X158202500Y-89384285D01*
X158250119Y-89431904D01*
X158345357Y-89479523D01*
X158583452Y-89479523D01*
X158678690Y-89431904D01*
X158726309Y-89384285D01*
X158773928Y-89289047D01*
X158773928Y-89098571D01*
X158726309Y-89003333D01*
X158678690Y-88955714D01*
X158583452Y-88908095D01*
%TO.C,R20*%
X150439642Y-86812380D02*
X150106309Y-86336190D01*
X149868214Y-86812380D02*
X149868214Y-85812380D01*
X150249166Y-85812380D01*
X150344404Y-85860000D01*
X150392023Y-85907619D01*
X150439642Y-86002857D01*
X150439642Y-86145714D01*
X150392023Y-86240952D01*
X150344404Y-86288571D01*
X150249166Y-86336190D01*
X149868214Y-86336190D01*
X150820595Y-85907619D02*
X150868214Y-85860000D01*
X150963452Y-85812380D01*
X151201547Y-85812380D01*
X151296785Y-85860000D01*
X151344404Y-85907619D01*
X151392023Y-86002857D01*
X151392023Y-86098095D01*
X151344404Y-86240952D01*
X150772976Y-86812380D01*
X151392023Y-86812380D01*
X152011071Y-85812380D02*
X152106309Y-85812380D01*
X152201547Y-85860000D01*
X152249166Y-85907619D01*
X152296785Y-86002857D01*
X152344404Y-86193333D01*
X152344404Y-86431428D01*
X152296785Y-86621904D01*
X152249166Y-86717142D01*
X152201547Y-86764761D01*
X152106309Y-86812380D01*
X152011071Y-86812380D01*
X151915833Y-86764761D01*
X151868214Y-86717142D01*
X151820595Y-86621904D01*
X151772976Y-86431428D01*
X151772976Y-86193333D01*
X151820595Y-86002857D01*
X151868214Y-85907619D01*
X151915833Y-85860000D01*
X152011071Y-85812380D01*
%TO.C,R6*%
X89955833Y-94432380D02*
X89622500Y-93956190D01*
X89384404Y-94432380D02*
X89384404Y-93432380D01*
X89765357Y-93432380D01*
X89860595Y-93480000D01*
X89908214Y-93527619D01*
X89955833Y-93622857D01*
X89955833Y-93765714D01*
X89908214Y-93860952D01*
X89860595Y-93908571D01*
X89765357Y-93956190D01*
X89384404Y-93956190D01*
X90812976Y-93432380D02*
X90622500Y-93432380D01*
X90527261Y-93480000D01*
X90479642Y-93527619D01*
X90384404Y-93670476D01*
X90336785Y-93860952D01*
X90336785Y-94241904D01*
X90384404Y-94337142D01*
X90432023Y-94384761D01*
X90527261Y-94432380D01*
X90717738Y-94432380D01*
X90812976Y-94384761D01*
X90860595Y-94337142D01*
X90908214Y-94241904D01*
X90908214Y-94003809D01*
X90860595Y-93908571D01*
X90812976Y-93860952D01*
X90717738Y-93813333D01*
X90527261Y-93813333D01*
X90432023Y-93860952D01*
X90384404Y-93908571D01*
X90336785Y-94003809D01*
%TO.C,R8*%
X110323333Y-86812380D02*
X109990000Y-86336190D01*
X109751904Y-86812380D02*
X109751904Y-85812380D01*
X110132857Y-85812380D01*
X110228095Y-85860000D01*
X110275714Y-85907619D01*
X110323333Y-86002857D01*
X110323333Y-86145714D01*
X110275714Y-86240952D01*
X110228095Y-86288571D01*
X110132857Y-86336190D01*
X109751904Y-86336190D01*
X110894761Y-86240952D02*
X110799523Y-86193333D01*
X110751904Y-86145714D01*
X110704285Y-86050476D01*
X110704285Y-86002857D01*
X110751904Y-85907619D01*
X110799523Y-85860000D01*
X110894761Y-85812380D01*
X111085238Y-85812380D01*
X111180476Y-85860000D01*
X111228095Y-85907619D01*
X111275714Y-86002857D01*
X111275714Y-86050476D01*
X111228095Y-86145714D01*
X111180476Y-86193333D01*
X111085238Y-86240952D01*
X110894761Y-86240952D01*
X110799523Y-86288571D01*
X110751904Y-86336190D01*
X110704285Y-86431428D01*
X110704285Y-86621904D01*
X110751904Y-86717142D01*
X110799523Y-86764761D01*
X110894761Y-86812380D01*
X111085238Y-86812380D01*
X111180476Y-86764761D01*
X111228095Y-86717142D01*
X111275714Y-86621904D01*
X111275714Y-86431428D01*
X111228095Y-86336190D01*
X111180476Y-86288571D01*
X111085238Y-86240952D01*
%TO.C,Q5*%
X169660119Y-59785238D02*
X169612500Y-59880476D01*
X169517261Y-59975714D01*
X169374404Y-60118571D01*
X169326785Y-60213809D01*
X169326785Y-60309047D01*
X169564880Y-60261428D02*
X169517261Y-60356666D01*
X169422023Y-60451904D01*
X169231547Y-60499523D01*
X168898214Y-60499523D01*
X168707738Y-60451904D01*
X168612500Y-60356666D01*
X168564880Y-60261428D01*
X168564880Y-60070952D01*
X168612500Y-59975714D01*
X168707738Y-59880476D01*
X168898214Y-59832857D01*
X169231547Y-59832857D01*
X169422023Y-59880476D01*
X169517261Y-59975714D01*
X169564880Y-60070952D01*
X169564880Y-60261428D01*
X168564880Y-58928095D02*
X168564880Y-59404285D01*
X169041071Y-59451904D01*
X168993452Y-59404285D01*
X168945833Y-59309047D01*
X168945833Y-59070952D01*
X168993452Y-58975714D01*
X169041071Y-58928095D01*
X169136309Y-58880476D01*
X169374404Y-58880476D01*
X169469642Y-58928095D01*
X169517261Y-58975714D01*
X169564880Y-59070952D01*
X169564880Y-59309047D01*
X169517261Y-59404285D01*
X169469642Y-59451904D01*
%TO.C,Q6*%
X189907619Y-59785238D02*
X189860000Y-59880476D01*
X189764761Y-59975714D01*
X189621904Y-60118571D01*
X189574285Y-60213809D01*
X189574285Y-60309047D01*
X189812380Y-60261428D02*
X189764761Y-60356666D01*
X189669523Y-60451904D01*
X189479047Y-60499523D01*
X189145714Y-60499523D01*
X188955238Y-60451904D01*
X188860000Y-60356666D01*
X188812380Y-60261428D01*
X188812380Y-60070952D01*
X188860000Y-59975714D01*
X188955238Y-59880476D01*
X189145714Y-59832857D01*
X189479047Y-59832857D01*
X189669523Y-59880476D01*
X189764761Y-59975714D01*
X189812380Y-60070952D01*
X189812380Y-60261428D01*
X188812380Y-58975714D02*
X188812380Y-59166190D01*
X188860000Y-59261428D01*
X188907619Y-59309047D01*
X189050476Y-59404285D01*
X189240952Y-59451904D01*
X189621904Y-59451904D01*
X189717142Y-59404285D01*
X189764761Y-59356666D01*
X189812380Y-59261428D01*
X189812380Y-59070952D01*
X189764761Y-58975714D01*
X189717142Y-58928095D01*
X189621904Y-58880476D01*
X189383809Y-58880476D01*
X189288571Y-58928095D01*
X189240952Y-58975714D01*
X189193333Y-59070952D01*
X189193333Y-59261428D01*
X189240952Y-59356666D01*
X189288571Y-59404285D01*
X189383809Y-59451904D01*
%TO.C,Q2*%
X108675119Y-59785238D02*
X108627500Y-59880476D01*
X108532261Y-59975714D01*
X108389404Y-60118571D01*
X108341785Y-60213809D01*
X108341785Y-60309047D01*
X108579880Y-60261428D02*
X108532261Y-60356666D01*
X108437023Y-60451904D01*
X108246547Y-60499523D01*
X107913214Y-60499523D01*
X107722738Y-60451904D01*
X107627500Y-60356666D01*
X107579880Y-60261428D01*
X107579880Y-60070952D01*
X107627500Y-59975714D01*
X107722738Y-59880476D01*
X107913214Y-59832857D01*
X108246547Y-59832857D01*
X108437023Y-59880476D01*
X108532261Y-59975714D01*
X108579880Y-60070952D01*
X108579880Y-60261428D01*
X107675119Y-59451904D02*
X107627500Y-59404285D01*
X107579880Y-59309047D01*
X107579880Y-59070952D01*
X107627500Y-58975714D01*
X107675119Y-58928095D01*
X107770357Y-58880476D01*
X107865595Y-58880476D01*
X108008452Y-58928095D01*
X108579880Y-59499523D01*
X108579880Y-58880476D01*
%TO.C,R40*%
X142819642Y-60142380D02*
X142486309Y-59666190D01*
X142248214Y-60142380D02*
X142248214Y-59142380D01*
X142629166Y-59142380D01*
X142724404Y-59190000D01*
X142772023Y-59237619D01*
X142819642Y-59332857D01*
X142819642Y-59475714D01*
X142772023Y-59570952D01*
X142724404Y-59618571D01*
X142629166Y-59666190D01*
X142248214Y-59666190D01*
X143676785Y-59475714D02*
X143676785Y-60142380D01*
X143438690Y-59094761D02*
X143200595Y-59809047D01*
X143819642Y-59809047D01*
X144391071Y-59142380D02*
X144486309Y-59142380D01*
X144581547Y-59190000D01*
X144629166Y-59237619D01*
X144676785Y-59332857D01*
X144724404Y-59523333D01*
X144724404Y-59761428D01*
X144676785Y-59951904D01*
X144629166Y-60047142D01*
X144581547Y-60094761D01*
X144486309Y-60142380D01*
X144391071Y-60142380D01*
X144295833Y-60094761D01*
X144248214Y-60047142D01*
X144200595Y-59951904D01*
X144152976Y-59761428D01*
X144152976Y-59523333D01*
X144200595Y-59332857D01*
X144248214Y-59237619D01*
X144295833Y-59190000D01*
X144391071Y-59142380D01*
D11*
%TO.C,U1*%
X82550000Y-36820000D02*
X82550000Y-34150000D01*
X120650000Y-36820000D02*
X120650000Y-34150000D01*
X82550000Y-36820000D02*
X120650000Y-36820000D01*
X85090000Y-52190000D02*
X123320000Y-52190000D01*
X123320000Y-52190000D02*
X123320000Y-34150000D01*
X120650000Y-49520000D02*
X120650000Y-52190000D01*
X82550000Y-49520000D02*
X82550000Y-52190000D01*
X85090000Y-49520000D02*
X85090000Y-52190000D01*
X85090000Y-49520000D02*
X82550000Y-49520000D01*
X85090000Y-49520000D02*
X120650000Y-49520000D01*
X79880000Y-52190000D02*
X82550000Y-52190000D01*
X79880000Y-34150000D02*
X79880000Y-52190000D01*
X123320000Y-34150000D02*
X79880000Y-34150000D01*
%TO.C,J5*%
X105415000Y-30420000D02*
X115635000Y-30420000D01*
X115635000Y-33080000D02*
X115635000Y-30420000D01*
X102815000Y-33080000D02*
X102815000Y-31750000D01*
X105415000Y-33080000D02*
X105415000Y-30420000D01*
X104145000Y-33080000D02*
X102815000Y-33080000D01*
X105415000Y-33080000D02*
X115635000Y-33080000D01*
%TO.C,J2*%
X92720000Y-33080000D02*
X92720000Y-30420000D01*
X100400000Y-33080000D02*
X100400000Y-30420000D01*
X92720000Y-33080000D02*
X100400000Y-33080000D01*
X90120000Y-33080000D02*
X90120000Y-31750000D01*
X91450000Y-33080000D02*
X90120000Y-33080000D01*
X92720000Y-30420000D02*
X100400000Y-30420000D01*
%TO.C,R37*%
X84360000Y-56920000D02*
X84360000Y-57250000D01*
X84360000Y-54510000D02*
X90900000Y-54510000D01*
X90900000Y-54510000D02*
X90900000Y-54840000D01*
X84360000Y-57250000D02*
X90900000Y-57250000D01*
X90900000Y-57250000D02*
X90900000Y-56920000D01*
X84360000Y-54840000D02*
X84360000Y-54510000D01*
%TO.C,R39*%
X126412500Y-61060000D02*
X126412500Y-60730000D01*
X126412500Y-58320000D02*
X126412500Y-58650000D01*
X119872500Y-60730000D02*
X119872500Y-61060000D01*
X119872500Y-58320000D02*
X126412500Y-58320000D01*
X119872500Y-61060000D02*
X126412500Y-61060000D01*
X119872500Y-58650000D02*
X119872500Y-58320000D01*
%TO.C,J4*%
X200085000Y-71705000D02*
X199998276Y-71705000D01*
X200085000Y-73075000D02*
X199390000Y-73075000D01*
X200085000Y-71705000D02*
X200085000Y-70830000D01*
X200085000Y-70830000D02*
X199784493Y-70830000D01*
X198781724Y-71705000D02*
X198695000Y-71705000D01*
X198995507Y-70830000D02*
X198695000Y-70830000D01*
X200085000Y-72390000D02*
X200085000Y-73075000D01*
X198695000Y-71705000D02*
X198695000Y-70830000D01*
%TO.C,J3*%
X81855000Y-94935000D02*
X81941724Y-94935000D01*
X81855000Y-93565000D02*
X82550000Y-93565000D01*
X81855000Y-94935000D02*
X81855000Y-95810000D01*
X81855000Y-95810000D02*
X82155507Y-95810000D01*
X83158276Y-94935000D02*
X83245000Y-94935000D01*
X82944493Y-95810000D02*
X83245000Y-95810000D01*
X81855000Y-94250000D02*
X81855000Y-93565000D01*
X83245000Y-94935000D02*
X83245000Y-95810000D01*
%TO.C,K6*%
X190212500Y-63442500D02*
X190212500Y-64482500D01*
X186372500Y-63292500D02*
X187582500Y-63292500D01*
X196912500Y-84032500D02*
X196912500Y-63442500D01*
X191382500Y-64652500D02*
X191382500Y-65852500D01*
X193212500Y-64502500D02*
X193212500Y-63442500D01*
X190212500Y-64502500D02*
X193212500Y-64502500D01*
X192082500Y-65282500D02*
X193182500Y-65282500D01*
X192082500Y-64652500D02*
X191382500Y-64652500D01*
X191382500Y-65282500D02*
X190282500Y-65282500D01*
X186532500Y-63442500D02*
X186532500Y-84032500D01*
X196912500Y-63442500D02*
X186532500Y-63442500D01*
X191382500Y-65852500D02*
X192082500Y-65852500D01*
X186532500Y-84032500D02*
X196912500Y-84032500D01*
X186372500Y-64592500D02*
X186372500Y-63292500D01*
X191382500Y-65452500D02*
X192082500Y-65052500D01*
X192082500Y-65852500D02*
X192082500Y-64652500D01*
%TO.C,K5*%
X171762500Y-65780000D02*
X171762500Y-64580000D01*
X171062500Y-65380000D02*
X171762500Y-64980000D01*
X166052500Y-64520000D02*
X166052500Y-63220000D01*
X166212500Y-83960000D02*
X176592500Y-83960000D01*
X171062500Y-65780000D02*
X171762500Y-65780000D01*
X176592500Y-63370000D02*
X166212500Y-63370000D01*
X166212500Y-63370000D02*
X166212500Y-83960000D01*
X171062500Y-65210000D02*
X169962500Y-65210000D01*
X171762500Y-64580000D02*
X171062500Y-64580000D01*
X171762500Y-65210000D02*
X172862500Y-65210000D01*
X169892500Y-64430000D02*
X172892500Y-64430000D01*
X172892500Y-64430000D02*
X172892500Y-63370000D01*
X171062500Y-64580000D02*
X171062500Y-65780000D01*
X176592500Y-83960000D02*
X176592500Y-63370000D01*
X166052500Y-63220000D02*
X167262500Y-63220000D01*
X169892500Y-63370000D02*
X169892500Y-64410000D01*
%TO.C,K4*%
X151490000Y-65780000D02*
X151490000Y-64580000D01*
X150790000Y-65380000D02*
X151490000Y-64980000D01*
X145780000Y-64520000D02*
X145780000Y-63220000D01*
X145940000Y-83960000D02*
X156320000Y-83960000D01*
X150790000Y-65780000D02*
X151490000Y-65780000D01*
X156320000Y-63370000D02*
X145940000Y-63370000D01*
X145940000Y-63370000D02*
X145940000Y-83960000D01*
X150790000Y-65210000D02*
X149690000Y-65210000D01*
X151490000Y-64580000D02*
X150790000Y-64580000D01*
X151490000Y-65210000D02*
X152590000Y-65210000D01*
X149620000Y-64430000D02*
X152620000Y-64430000D01*
X152620000Y-64430000D02*
X152620000Y-63370000D01*
X150790000Y-64580000D02*
X150790000Y-65780000D01*
X156320000Y-83960000D02*
X156320000Y-63370000D01*
X145780000Y-63220000D02*
X146990000Y-63220000D01*
X149620000Y-63370000D02*
X149620000Y-64410000D01*
%TO.C,K3*%
X131170000Y-65812500D02*
X131170000Y-64612500D01*
X130470000Y-65412500D02*
X131170000Y-65012500D01*
X125460000Y-64552500D02*
X125460000Y-63252500D01*
X125620000Y-83992500D02*
X136000000Y-83992500D01*
X130470000Y-65812500D02*
X131170000Y-65812500D01*
X136000000Y-63402500D02*
X125620000Y-63402500D01*
X125620000Y-63402500D02*
X125620000Y-83992500D01*
X130470000Y-65242500D02*
X129370000Y-65242500D01*
X131170000Y-64612500D02*
X130470000Y-64612500D01*
X131170000Y-65242500D02*
X132270000Y-65242500D01*
X129300000Y-64462500D02*
X132300000Y-64462500D01*
X132300000Y-64462500D02*
X132300000Y-63402500D01*
X130470000Y-64612500D02*
X130470000Y-65812500D01*
X136000000Y-83992500D02*
X136000000Y-63402500D01*
X125460000Y-63252500D02*
X126670000Y-63252500D01*
X129300000Y-63402500D02*
X129300000Y-64442500D01*
%TO.C,K2*%
X110850000Y-65852500D02*
X110850000Y-64652500D01*
X110150000Y-65452500D02*
X110850000Y-65052500D01*
X105140000Y-64592500D02*
X105140000Y-63292500D01*
X105300000Y-84032500D02*
X115680000Y-84032500D01*
X110150000Y-65852500D02*
X110850000Y-65852500D01*
X115680000Y-63442500D02*
X105300000Y-63442500D01*
X105300000Y-63442500D02*
X105300000Y-84032500D01*
X110150000Y-65282500D02*
X109050000Y-65282500D01*
X110850000Y-64652500D02*
X110150000Y-64652500D01*
X110850000Y-65282500D02*
X111950000Y-65282500D01*
X108980000Y-64502500D02*
X111980000Y-64502500D01*
X111980000Y-64502500D02*
X111980000Y-63442500D01*
X110150000Y-64652500D02*
X110150000Y-65852500D01*
X115680000Y-84032500D02*
X115680000Y-63442500D01*
X105140000Y-63292500D02*
X106350000Y-63292500D01*
X108980000Y-63442500D02*
X108980000Y-64482500D01*
%TO.C,K1*%
X90482500Y-65780000D02*
X90482500Y-64580000D01*
X89782500Y-65380000D02*
X90482500Y-64980000D01*
X84772500Y-64520000D02*
X84772500Y-63220000D01*
X84932500Y-83960000D02*
X95312500Y-83960000D01*
X89782500Y-65780000D02*
X90482500Y-65780000D01*
X95312500Y-63370000D02*
X84932500Y-63370000D01*
X84932500Y-63370000D02*
X84932500Y-83960000D01*
X89782500Y-65210000D02*
X88682500Y-65210000D01*
X90482500Y-64580000D02*
X89782500Y-64580000D01*
X90482500Y-65210000D02*
X91582500Y-65210000D01*
X88612500Y-64430000D02*
X91612500Y-64430000D01*
X91612500Y-64430000D02*
X91612500Y-63370000D01*
X89782500Y-64580000D02*
X89782500Y-65780000D01*
X95312500Y-83960000D02*
X95312500Y-63370000D01*
X84772500Y-63220000D02*
X85982500Y-63220000D01*
X88612500Y-63370000D02*
X88612500Y-64410000D01*
%TO.C,R11*%
X103837500Y-78010000D02*
X104167500Y-78010000D01*
X101427500Y-78010000D02*
X101427500Y-84550000D01*
X104167500Y-84550000D02*
X103837500Y-84550000D01*
X101427500Y-84550000D02*
X101757500Y-84550000D01*
X101757500Y-78010000D02*
X101427500Y-78010000D01*
X104167500Y-78010000D02*
X104167500Y-84550000D01*
%TO.C,D4*%
X141967500Y-72497500D02*
X144907500Y-72497500D01*
X141967500Y-71597500D02*
X144907500Y-71597500D01*
X144907500Y-67057500D02*
X141967500Y-67057500D01*
X141967500Y-71477500D02*
X144907500Y-71477500D01*
X143437500Y-73517500D02*
X143437500Y-72497500D01*
X141967500Y-67057500D02*
X141967500Y-72497500D01*
X144907500Y-72497500D02*
X144907500Y-67057500D01*
X143437500Y-66037500D02*
X143437500Y-67057500D01*
X141967500Y-71717500D02*
X144907500Y-71717500D01*
%TO.C,R2*%
X93392500Y-84990000D02*
X93392500Y-85320000D01*
X86852500Y-87730000D02*
X93392500Y-87730000D01*
X86852500Y-87400000D02*
X86852500Y-87730000D01*
X86852500Y-85320000D02*
X86852500Y-84990000D01*
X86852500Y-84990000D02*
X93392500Y-84990000D01*
X93392500Y-87730000D02*
X93392500Y-87400000D01*
%TO.C,Q4*%
X154177500Y-61417500D02*
X154177500Y-57817500D01*
X154165978Y-57779022D02*
G75*
G03*
X149727500Y-59617500I-1838478J-1838478D01*
G01*
X149727499Y-59617500D02*
G75*
G03*
X154165978Y-61455978I2600001J0D01*
G01*
%TO.C,J1*%
X82490000Y-33080000D02*
X82490000Y-31750000D01*
X85090000Y-33080000D02*
X85090000Y-30420000D01*
X87690000Y-33080000D02*
X87690000Y-30420000D01*
X85090000Y-30420000D02*
X87690000Y-30420000D01*
X85090000Y-33080000D02*
X87690000Y-33080000D01*
X83820000Y-33080000D02*
X82490000Y-33080000D01*
%TO.C,R32*%
X194992500Y-87730000D02*
X194992500Y-87400000D01*
X194992500Y-84990000D02*
X194992500Y-85320000D01*
X188452500Y-84990000D02*
X194992500Y-84990000D01*
X188452500Y-87400000D02*
X188452500Y-87730000D01*
X188452500Y-87730000D02*
X194992500Y-87730000D01*
X188452500Y-85320000D02*
X188452500Y-84990000D01*
%TO.C,R23*%
X142140000Y-85820000D02*
X142470000Y-85820000D01*
X144880000Y-79280000D02*
X144880000Y-85820000D01*
X142140000Y-79280000D02*
X142140000Y-85820000D01*
X144550000Y-79280000D02*
X144880000Y-79280000D01*
X144880000Y-85820000D02*
X144550000Y-85820000D01*
X142470000Y-79280000D02*
X142140000Y-79280000D01*
%TO.C,Q3*%
X133930000Y-61522500D02*
X133930000Y-57922500D01*
X129479999Y-59722500D02*
G75*
G03*
X133918478Y-61560978I2600001J0D01*
G01*
X133918478Y-57884022D02*
G75*
G03*
X129480000Y-59722500I-1838478J-1838478D01*
G01*
%TO.C,R4*%
X96702500Y-75470000D02*
X96372500Y-75470000D01*
X96372500Y-75470000D02*
X96372500Y-82010000D01*
X99112500Y-75470000D02*
X99112500Y-82010000D01*
X96372500Y-82010000D02*
X96702500Y-82010000D01*
X98782500Y-75470000D02*
X99112500Y-75470000D01*
X99112500Y-82010000D02*
X98782500Y-82010000D01*
%TO.C,R18*%
X134032500Y-92610000D02*
X134032500Y-92940000D01*
X127492500Y-95020000D02*
X127492500Y-95350000D01*
X134032500Y-95350000D02*
X134032500Y-95020000D01*
X127492500Y-92940000D02*
X127492500Y-92610000D01*
X127492500Y-95350000D02*
X134032500Y-95350000D01*
X127492500Y-92610000D02*
X134032500Y-92610000D01*
%TO.C,R36*%
X194992500Y-95350000D02*
X194992500Y-95020000D01*
X188452500Y-92610000D02*
X194992500Y-92610000D01*
X188452500Y-95350000D02*
X194992500Y-95350000D01*
X188452500Y-92940000D02*
X188452500Y-92610000D01*
X194992500Y-92610000D02*
X194992500Y-92940000D01*
X188452500Y-95020000D02*
X188452500Y-95350000D01*
%TO.C,R31*%
X197972500Y-86900000D02*
X198302500Y-86900000D01*
X200712500Y-93440000D02*
X200712500Y-86900000D01*
X200382500Y-93440000D02*
X200712500Y-93440000D01*
X200712500Y-86900000D02*
X200382500Y-86900000D01*
X197972500Y-93440000D02*
X197972500Y-86900000D01*
X198302500Y-93440000D02*
X197972500Y-93440000D01*
%TO.C,R24*%
X147812500Y-92610000D02*
X154352500Y-92610000D01*
X154352500Y-92610000D02*
X154352500Y-92940000D01*
X154352500Y-95350000D02*
X154352500Y-95020000D01*
X147812500Y-95020000D02*
X147812500Y-95350000D01*
X147812500Y-92940000D02*
X147812500Y-92610000D01*
X147812500Y-95350000D02*
X154352500Y-95350000D01*
%TO.C,R16*%
X139422500Y-75470000D02*
X139752500Y-75470000D01*
X139752500Y-75470000D02*
X139752500Y-82010000D01*
X137342500Y-75470000D02*
X137012500Y-75470000D01*
X137012500Y-82010000D02*
X137342500Y-82010000D01*
X137012500Y-75470000D02*
X137012500Y-82010000D01*
X139752500Y-82010000D02*
X139422500Y-82010000D01*
%TO.C,R10*%
X119150000Y-75470000D02*
X119480000Y-75470000D01*
X119480000Y-75470000D02*
X119480000Y-82010000D01*
X116740000Y-82010000D02*
X117070000Y-82010000D01*
X119480000Y-82010000D02*
X119150000Y-82010000D01*
X116740000Y-75470000D02*
X116740000Y-82010000D01*
X117070000Y-75470000D02*
X116740000Y-75470000D01*
%TO.C,R1*%
X96372500Y-93440000D02*
X96372500Y-86900000D01*
X96372500Y-86900000D02*
X96702500Y-86900000D01*
X98782500Y-93440000D02*
X99112500Y-93440000D01*
X99112500Y-93440000D02*
X99112500Y-86900000D01*
X99112500Y-86900000D02*
X98782500Y-86900000D01*
X96702500Y-93440000D02*
X96372500Y-93440000D01*
%TO.C,R5*%
X81132500Y-78010000D02*
X81132500Y-84550000D01*
X83872500Y-78010000D02*
X83872500Y-84550000D01*
X81132500Y-84550000D02*
X81462500Y-84550000D01*
X83872500Y-84550000D02*
X83542500Y-84550000D01*
X81462500Y-78010000D02*
X81132500Y-78010000D01*
X83542500Y-78010000D02*
X83872500Y-78010000D01*
%TO.C,R35*%
X185400000Y-79280000D02*
X185400000Y-85820000D01*
X182660000Y-85820000D02*
X182990000Y-85820000D01*
X185400000Y-85820000D02*
X185070000Y-85820000D01*
X182660000Y-79280000D02*
X182660000Y-85820000D01*
X185070000Y-79280000D02*
X185400000Y-79280000D01*
X182990000Y-79280000D02*
X182660000Y-79280000D01*
%TO.C,R13*%
X137012500Y-93440000D02*
X137012500Y-86900000D01*
X137342500Y-93440000D02*
X137012500Y-93440000D01*
X139752500Y-93440000D02*
X139752500Y-86900000D01*
X139752500Y-86900000D02*
X139422500Y-86900000D01*
X139422500Y-93440000D02*
X139752500Y-93440000D01*
X137012500Y-86900000D02*
X137342500Y-86900000D01*
%TO.C,R27*%
X174672500Y-91540000D02*
X168132500Y-91540000D01*
X174672500Y-89130000D02*
X174672500Y-88800000D01*
X168132500Y-88800000D02*
X168132500Y-89130000D01*
X168132500Y-91540000D02*
X168132500Y-91210000D01*
X174672500Y-91210000D02*
X174672500Y-91540000D01*
X174672500Y-88800000D02*
X168132500Y-88800000D01*
%TO.C,R22*%
X157332500Y-82010000D02*
X157662500Y-82010000D01*
X157332500Y-75470000D02*
X157332500Y-82010000D01*
X157662500Y-75470000D02*
X157332500Y-75470000D01*
X160072500Y-75470000D02*
X160072500Y-82010000D01*
X159742500Y-75470000D02*
X160072500Y-75470000D01*
X160072500Y-82010000D02*
X159742500Y-82010000D01*
%TO.C,R30*%
X168132500Y-95350000D02*
X174672500Y-95350000D01*
X174672500Y-92610000D02*
X174672500Y-92940000D01*
X168132500Y-92940000D02*
X168132500Y-92610000D01*
X168132500Y-95020000D02*
X168132500Y-95350000D01*
X174672500Y-95350000D02*
X174672500Y-95020000D01*
X168132500Y-92610000D02*
X174672500Y-92610000D01*
%TO.C,R38*%
X106092500Y-58320000D02*
X106092500Y-58650000D01*
X99552500Y-58320000D02*
X106092500Y-58320000D01*
X99552500Y-60730000D02*
X99552500Y-61060000D01*
X106092500Y-61060000D02*
X106092500Y-60730000D01*
X99552500Y-58650000D02*
X99552500Y-58320000D01*
X99552500Y-61060000D02*
X106092500Y-61060000D01*
%TO.C,R41*%
X160512500Y-60730000D02*
X160512500Y-61060000D01*
X167052500Y-61060000D02*
X167052500Y-60730000D01*
X160512500Y-58320000D02*
X167052500Y-58320000D01*
X160512500Y-61060000D02*
X167052500Y-61060000D01*
X160512500Y-58650000D02*
X160512500Y-58320000D01*
X167052500Y-58320000D02*
X167052500Y-58650000D01*
%TO.C,D1*%
X81032500Y-72570000D02*
X83972500Y-72570000D01*
X82502500Y-66110000D02*
X82502500Y-67130000D01*
X81032500Y-71550000D02*
X83972500Y-71550000D01*
X81032500Y-71790000D02*
X83972500Y-71790000D01*
X82502500Y-73590000D02*
X82502500Y-72570000D01*
X81032500Y-67130000D02*
X81032500Y-72570000D01*
X83972500Y-72570000D02*
X83972500Y-67130000D01*
X81032500Y-71670000D02*
X83972500Y-71670000D01*
X83972500Y-67130000D02*
X81032500Y-67130000D01*
%TO.C,R3*%
X86852500Y-88800000D02*
X86852500Y-89130000D01*
X93392500Y-91540000D02*
X86852500Y-91540000D01*
X93392500Y-91210000D02*
X93392500Y-91540000D01*
X93392500Y-89130000D02*
X93392500Y-88800000D01*
X86852500Y-91540000D02*
X86852500Y-91210000D01*
X93392500Y-88800000D02*
X86852500Y-88800000D01*
%TO.C,R42*%
X187372500Y-61060000D02*
X187372500Y-60730000D01*
X180832500Y-61060000D02*
X187372500Y-61060000D01*
X187372500Y-58320000D02*
X187372500Y-58650000D01*
X180832500Y-58320000D02*
X187372500Y-58320000D01*
X180832500Y-58650000D02*
X180832500Y-58320000D01*
X180832500Y-60730000D02*
X180832500Y-61060000D01*
%TO.C,R33*%
X194992500Y-91540000D02*
X188452500Y-91540000D01*
X194992500Y-89130000D02*
X194992500Y-88800000D01*
X194992500Y-88800000D02*
X188452500Y-88800000D01*
X194992500Y-91210000D02*
X194992500Y-91540000D01*
X188452500Y-91540000D02*
X188452500Y-91210000D01*
X188452500Y-88800000D02*
X188452500Y-89130000D01*
%TO.C,R34*%
X200712500Y-75470000D02*
X200712500Y-82010000D01*
X200382500Y-75470000D02*
X200712500Y-75470000D01*
X200712500Y-82010000D02*
X200382500Y-82010000D01*
X197972500Y-82010000D02*
X198302500Y-82010000D01*
X197972500Y-75470000D02*
X197972500Y-82010000D01*
X198302500Y-75470000D02*
X197972500Y-75470000D01*
%TO.C,Q1*%
X93242500Y-61490000D02*
X93242500Y-57890000D01*
X88792499Y-59690000D02*
G75*
G03*
X93230978Y-61528478I2600001J0D01*
G01*
X93230978Y-57851522D02*
G75*
G03*
X88792500Y-59690000I-1838478J-1838478D01*
G01*
%TO.C,R21*%
X147812500Y-88800000D02*
X147812500Y-89130000D01*
X147812500Y-91540000D02*
X147812500Y-91210000D01*
X154352500Y-91540000D02*
X147812500Y-91540000D01*
X154352500Y-88800000D02*
X147812500Y-88800000D01*
X154352500Y-89130000D02*
X154352500Y-88800000D01*
X154352500Y-91210000D02*
X154352500Y-91540000D01*
%TO.C,R25*%
X177652500Y-86900000D02*
X177982500Y-86900000D01*
X177652500Y-93440000D02*
X177652500Y-86900000D01*
X180392500Y-86900000D02*
X180062500Y-86900000D01*
X177982500Y-93440000D02*
X177652500Y-93440000D01*
X180392500Y-93440000D02*
X180392500Y-86900000D01*
X180062500Y-93440000D02*
X180392500Y-93440000D01*
%TO.C,R17*%
X122150000Y-79312500D02*
X121820000Y-79312500D01*
X124560000Y-85852500D02*
X124230000Y-85852500D01*
X124560000Y-79312500D02*
X124560000Y-85852500D01*
X121820000Y-79312500D02*
X121820000Y-85852500D01*
X124230000Y-79312500D02*
X124560000Y-79312500D01*
X121820000Y-85852500D02*
X122150000Y-85852500D01*
%TO.C,D5*%
X162312500Y-71790000D02*
X165252500Y-71790000D01*
X163782500Y-66110000D02*
X163782500Y-67130000D01*
X165252500Y-72570000D02*
X165252500Y-67130000D01*
X162312500Y-71670000D02*
X165252500Y-71670000D01*
X163782500Y-73590000D02*
X163782500Y-72570000D01*
X162312500Y-72570000D02*
X165252500Y-72570000D01*
X162312500Y-71550000D02*
X165252500Y-71550000D01*
X165252500Y-67130000D02*
X162312500Y-67130000D01*
X162312500Y-67130000D02*
X162312500Y-72570000D01*
%TO.C,R15*%
X127492500Y-91540000D02*
X127492500Y-91210000D01*
X134032500Y-91210000D02*
X134032500Y-91540000D01*
X134032500Y-89130000D02*
X134032500Y-88800000D01*
X134032500Y-88800000D02*
X127492500Y-88800000D01*
X134032500Y-91540000D02*
X127492500Y-91540000D01*
X127492500Y-88800000D02*
X127492500Y-89130000D01*
%TO.C,R14*%
X134032500Y-87730000D02*
X134032500Y-87400000D01*
X127492500Y-84990000D02*
X134032500Y-84990000D01*
X134032500Y-84990000D02*
X134032500Y-85320000D01*
X127492500Y-85320000D02*
X127492500Y-84990000D01*
X127492500Y-87730000D02*
X134032500Y-87730000D01*
X127492500Y-87400000D02*
X127492500Y-87730000D01*
%TO.C,D3*%
X123190000Y-66142500D02*
X123190000Y-67162500D01*
X121720000Y-72602500D02*
X124660000Y-72602500D01*
X121720000Y-71822500D02*
X124660000Y-71822500D01*
X124660000Y-67162500D02*
X121720000Y-67162500D01*
X123190000Y-73622500D02*
X123190000Y-72602500D01*
X121720000Y-67162500D02*
X121720000Y-72602500D01*
X121720000Y-71582500D02*
X124660000Y-71582500D01*
X124660000Y-72602500D02*
X124660000Y-67162500D01*
X121720000Y-71702500D02*
X124660000Y-71702500D01*
%TO.C,R29*%
X162742500Y-79280000D02*
X162412500Y-79280000D01*
X164822500Y-79280000D02*
X165152500Y-79280000D01*
X165152500Y-85820000D02*
X164822500Y-85820000D01*
X162412500Y-79280000D02*
X162412500Y-85820000D01*
X162412500Y-85820000D02*
X162742500Y-85820000D01*
X165152500Y-79280000D02*
X165152500Y-85820000D01*
%TO.C,R26*%
X168132500Y-87730000D02*
X174672500Y-87730000D01*
X168132500Y-87400000D02*
X168132500Y-87730000D01*
X168132500Y-84990000D02*
X174672500Y-84990000D01*
X174672500Y-87730000D02*
X174672500Y-87400000D01*
X174672500Y-84990000D02*
X174672500Y-85320000D01*
X168132500Y-85320000D02*
X168132500Y-84990000D01*
%TO.C,D6*%
X182560000Y-71550000D02*
X185500000Y-71550000D01*
X185500000Y-72570000D02*
X185500000Y-67130000D01*
X182560000Y-71790000D02*
X185500000Y-71790000D01*
X182560000Y-72570000D02*
X185500000Y-72570000D01*
X182560000Y-67130000D02*
X182560000Y-72570000D01*
X184030000Y-66110000D02*
X184030000Y-67130000D01*
X184030000Y-73590000D02*
X184030000Y-72570000D01*
X185500000Y-67130000D02*
X182560000Y-67130000D01*
X182560000Y-71670000D02*
X185500000Y-71670000D01*
%TO.C,R9*%
X113760000Y-91210000D02*
X113760000Y-91540000D01*
X113760000Y-88800000D02*
X107220000Y-88800000D01*
X107220000Y-91540000D02*
X107220000Y-91210000D01*
X113760000Y-89130000D02*
X113760000Y-88800000D01*
X107220000Y-88800000D02*
X107220000Y-89130000D01*
X113760000Y-91540000D02*
X107220000Y-91540000D01*
%TO.C,R12*%
X107220000Y-92610000D02*
X113760000Y-92610000D01*
X107220000Y-95350000D02*
X113760000Y-95350000D01*
X107220000Y-92940000D02*
X107220000Y-92610000D01*
X113760000Y-95350000D02*
X113760000Y-95020000D01*
X113760000Y-92610000D02*
X113760000Y-92940000D01*
X107220000Y-95020000D02*
X107220000Y-95350000D01*
%TO.C,D2*%
X102797500Y-66110000D02*
X102797500Y-67130000D01*
X104267500Y-72570000D02*
X104267500Y-67130000D01*
X101327500Y-71790000D02*
X104267500Y-71790000D01*
X101327500Y-72570000D02*
X104267500Y-72570000D01*
X102797500Y-73590000D02*
X102797500Y-72570000D01*
X101327500Y-67130000D02*
X101327500Y-72570000D01*
X101327500Y-71670000D02*
X104267500Y-71670000D01*
X101327500Y-71550000D02*
X104267500Y-71550000D01*
X104267500Y-67130000D02*
X101327500Y-67130000D01*
%TO.C,R7*%
X119150000Y-93440000D02*
X119480000Y-93440000D01*
X116740000Y-93440000D02*
X116740000Y-86900000D01*
X119480000Y-93440000D02*
X119480000Y-86900000D01*
X117070000Y-93440000D02*
X116740000Y-93440000D01*
X116740000Y-86900000D02*
X117070000Y-86900000D01*
X119480000Y-86900000D02*
X119150000Y-86900000D01*
%TO.C,R28*%
X180062500Y-75470000D02*
X180392500Y-75470000D01*
X177652500Y-75470000D02*
X177652500Y-82010000D01*
X177982500Y-75470000D02*
X177652500Y-75470000D01*
X180392500Y-82010000D02*
X180062500Y-82010000D01*
X177652500Y-82010000D02*
X177982500Y-82010000D01*
X180392500Y-75470000D02*
X180392500Y-82010000D01*
%TO.C,R19*%
X157332500Y-86900000D02*
X157662500Y-86900000D01*
X160072500Y-93440000D02*
X160072500Y-86900000D01*
X157332500Y-93440000D02*
X157332500Y-86900000D01*
X157662500Y-93440000D02*
X157332500Y-93440000D01*
X159742500Y-93440000D02*
X160072500Y-93440000D01*
X160072500Y-86900000D02*
X159742500Y-86900000D01*
%TO.C,R20*%
X147812500Y-84990000D02*
X154352500Y-84990000D01*
X154352500Y-84990000D02*
X154352500Y-85320000D01*
X147812500Y-85320000D02*
X147812500Y-84990000D01*
X154352500Y-87730000D02*
X154352500Y-87400000D01*
X147812500Y-87400000D02*
X147812500Y-87730000D01*
X147812500Y-87730000D02*
X154352500Y-87730000D01*
%TO.C,R6*%
X93392500Y-95350000D02*
X93392500Y-95020000D01*
X86852500Y-95020000D02*
X86852500Y-95350000D01*
X86852500Y-92610000D02*
X93392500Y-92610000D01*
X93392500Y-92610000D02*
X93392500Y-92940000D01*
X86852500Y-95350000D02*
X93392500Y-95350000D01*
X86852500Y-92940000D02*
X86852500Y-92610000D01*
%TO.C,R8*%
X113760000Y-84990000D02*
X113760000Y-85320000D01*
X107220000Y-84990000D02*
X113760000Y-84990000D01*
X113760000Y-87730000D02*
X113760000Y-87400000D01*
X107220000Y-87730000D02*
X113760000Y-87730000D01*
X107220000Y-85320000D02*
X107220000Y-84990000D01*
X107220000Y-87400000D02*
X107220000Y-87730000D01*
%TO.C,Q5*%
X174522500Y-61490000D02*
X174522500Y-57890000D01*
X170072499Y-59690000D02*
G75*
G03*
X174510978Y-61528478I2600001J0D01*
G01*
X174510978Y-57851522D02*
G75*
G03*
X170072500Y-59690000I-1838478J-1838478D01*
G01*
%TO.C,Q6*%
X194770000Y-61490000D02*
X194770000Y-57890000D01*
X190319999Y-59690000D02*
G75*
G03*
X194758478Y-61528478I2600001J0D01*
G01*
X194758478Y-57851522D02*
G75*
G03*
X190320000Y-59690000I-1838478J-1838478D01*
G01*
%TO.C,Q2*%
X113537500Y-61490000D02*
X113537500Y-57890000D01*
X109087499Y-59690000D02*
G75*
G03*
X113525978Y-61528478I2600001J0D01*
G01*
X113525978Y-57851522D02*
G75*
G03*
X109087500Y-59690000I-1838478J-1838478D01*
G01*
%TO.C,R40*%
X140192500Y-58650000D02*
X140192500Y-58320000D01*
X146732500Y-58320000D02*
X146732500Y-58650000D01*
X140192500Y-60730000D02*
X140192500Y-61060000D01*
X140192500Y-58320000D02*
X146732500Y-58320000D01*
X140192500Y-61060000D02*
X146732500Y-61060000D01*
X146732500Y-61060000D02*
X146732500Y-60730000D01*
%TD*%
M02*
