%TF.GenerationSoftware,KiCad,Pcbnew,(6.0.4)*%
%TF.CreationDate,2025-11-09T20:57:56+08:00*%
%TF.ProjectId,KiCad,4b694361-642e-46b6-9963-61645f706362,rev?*%
%TF.SameCoordinates,Original*%
%TF.FileFunction,Soldermask,Top*%
%TF.FilePolarity,Negative*%
%FSLAX46Y46*%
G04 Gerber Fmt 4.6, Leading zero omitted, Abs format (unit mm)*
G04 Created by KiCad (PCBNEW (6.0.4)) date 2025-11-09 20:57:56*
%MOMM*%
%LPD*%
G01*
G04 APERTURE LIST*
%ADD10R,1.600000X1.600000*%
%ADD11O,1.600000X1.600000*%
%ADD12R,1.700000X1.700000*%
%ADD13O,1.700000X1.700000*%
%ADD14C,1.600000*%
%ADD15R,0.850000X0.850000*%
%ADD16O,0.850000X0.850000*%
%ADD17C,1.400000*%
%ADD18R,1.400000X1.400000*%
%ADD19R,2.200000X2.200000*%
%ADD20O,2.200000X2.200000*%
%ADD21R,1.500000X1.050000*%
%ADD22O,1.500000X1.050000*%
G04 APERTURE END LIST*
D10*
%TO.C,U1*%
X83820000Y-50790000D03*
D11*
X86360000Y-50790000D03*
X88900000Y-50790000D03*
X91440000Y-50790000D03*
X93980000Y-50790000D03*
X96520000Y-50790000D03*
X99060000Y-50790000D03*
X101600000Y-50790000D03*
X104140000Y-50790000D03*
X106680000Y-50790000D03*
X109220000Y-50790000D03*
X111760000Y-50790000D03*
X114300000Y-50790000D03*
X116840000Y-50790000D03*
X119380000Y-50790000D03*
X119380000Y-35550000D03*
X116840000Y-35550000D03*
X114300000Y-35550000D03*
X111760000Y-35550000D03*
X109220000Y-35550000D03*
X106680000Y-35550000D03*
X104140000Y-35550000D03*
X101600000Y-35550000D03*
X99060000Y-35550000D03*
X96520000Y-35550000D03*
X93980000Y-35550000D03*
X91440000Y-35550000D03*
X88900000Y-35550000D03*
X86360000Y-35550000D03*
X83820000Y-35550000D03*
%TD*%
D12*
%TO.C,J5*%
X104145000Y-31750000D03*
D13*
X106685000Y-31750000D03*
X109225000Y-31750000D03*
X111765000Y-31750000D03*
X114305000Y-31750000D03*
%TD*%
D12*
%TO.C,J2*%
X91450000Y-31750000D03*
D13*
X93990000Y-31750000D03*
X96530000Y-31750000D03*
X99070000Y-31750000D03*
%TD*%
D14*
%TO.C,R37*%
X83820000Y-55880000D03*
D11*
X91440000Y-55880000D03*
%TD*%
D14*
%TO.C,R39*%
X119332500Y-59690000D03*
D11*
X126952500Y-59690000D03*
%TD*%
D15*
%TO.C,J4*%
X199390000Y-72390000D03*
D16*
X199390000Y-71390000D03*
%TD*%
D15*
%TO.C,J3*%
X82550000Y-94250000D03*
D16*
X82550000Y-95250000D03*
%TD*%
D17*
%TO.C,K6*%
X195532500Y-64842500D03*
X195532500Y-72462500D03*
X195532500Y-77542500D03*
X195532500Y-82622500D03*
X187912500Y-82622500D03*
X187912500Y-77542500D03*
X187912500Y-72462500D03*
D18*
X187912500Y-64842500D03*
%TD*%
%TO.C,K5*%
X167592500Y-64770000D03*
D17*
X167592500Y-72390000D03*
X167592500Y-77470000D03*
X167592500Y-82550000D03*
X175212500Y-82550000D03*
X175212500Y-77470000D03*
X175212500Y-72390000D03*
X175212500Y-64770000D03*
%TD*%
D18*
%TO.C,K4*%
X147320000Y-64770000D03*
D17*
X147320000Y-72390000D03*
X147320000Y-77470000D03*
X147320000Y-82550000D03*
X154940000Y-82550000D03*
X154940000Y-77470000D03*
X154940000Y-72390000D03*
X154940000Y-64770000D03*
%TD*%
D18*
%TO.C,K3*%
X127000000Y-64802500D03*
D17*
X127000000Y-72422500D03*
X127000000Y-77502500D03*
X127000000Y-82582500D03*
X134620000Y-82582500D03*
X134620000Y-77502500D03*
X134620000Y-72422500D03*
X134620000Y-64802500D03*
%TD*%
D18*
%TO.C,K2*%
X106680000Y-64842500D03*
D17*
X106680000Y-72462500D03*
X106680000Y-77542500D03*
X106680000Y-82622500D03*
X114300000Y-82622500D03*
X114300000Y-77542500D03*
X114300000Y-72462500D03*
X114300000Y-64842500D03*
%TD*%
D18*
%TO.C,K1*%
X86312500Y-64770000D03*
D17*
X86312500Y-72390000D03*
X86312500Y-77470000D03*
X86312500Y-82550000D03*
X93932500Y-82550000D03*
X93932500Y-77470000D03*
X93932500Y-72390000D03*
X93932500Y-64770000D03*
%TD*%
D14*
%TO.C,R11*%
X102797500Y-77470000D03*
D11*
X102797500Y-85090000D03*
%TD*%
D19*
%TO.C,D4*%
X143437500Y-74857500D03*
D20*
X143437500Y-64697500D03*
%TD*%
D14*
%TO.C,R2*%
X86312500Y-86360000D03*
D11*
X93932500Y-86360000D03*
%TD*%
D21*
%TO.C,Q4*%
X152327500Y-60887500D03*
D22*
X152327500Y-59617500D03*
X152327500Y-58347500D03*
%TD*%
D12*
%TO.C,J1*%
X83820000Y-31750000D03*
D13*
X86360000Y-31750000D03*
%TD*%
D14*
%TO.C,R32*%
X187912500Y-86360000D03*
D11*
X195532500Y-86360000D03*
%TD*%
D14*
%TO.C,R23*%
X143510000Y-78740000D03*
D11*
X143510000Y-86360000D03*
%TD*%
D21*
%TO.C,Q3*%
X132080000Y-60992500D03*
D22*
X132080000Y-59722500D03*
X132080000Y-58452500D03*
%TD*%
D14*
%TO.C,R4*%
X97742500Y-74930000D03*
D11*
X97742500Y-82550000D03*
%TD*%
D14*
%TO.C,R18*%
X126952500Y-93980000D03*
D11*
X134572500Y-93980000D03*
%TD*%
%TO.C,R36*%
X195532500Y-93980000D03*
D14*
X187912500Y-93980000D03*
%TD*%
D11*
%TO.C,R31*%
X199342500Y-86360000D03*
D14*
X199342500Y-93980000D03*
%TD*%
%TO.C,R24*%
X147272500Y-93980000D03*
D11*
X154892500Y-93980000D03*
%TD*%
D14*
%TO.C,R16*%
X138382500Y-74930000D03*
D11*
X138382500Y-82550000D03*
%TD*%
D14*
%TO.C,R10*%
X118110000Y-74930000D03*
D11*
X118110000Y-82550000D03*
%TD*%
D14*
%TO.C,R1*%
X97742500Y-93980000D03*
D11*
X97742500Y-86360000D03*
%TD*%
D14*
%TO.C,R5*%
X82502500Y-77470000D03*
D11*
X82502500Y-85090000D03*
%TD*%
D14*
%TO.C,R35*%
X184030000Y-78740000D03*
D11*
X184030000Y-86360000D03*
%TD*%
D14*
%TO.C,R13*%
X138382500Y-93980000D03*
D11*
X138382500Y-86360000D03*
%TD*%
D14*
%TO.C,R27*%
X175212500Y-90170000D03*
D11*
X167592500Y-90170000D03*
%TD*%
D14*
%TO.C,R22*%
X158702500Y-74930000D03*
D11*
X158702500Y-82550000D03*
%TD*%
D14*
%TO.C,R30*%
X167592500Y-93980000D03*
D11*
X175212500Y-93980000D03*
%TD*%
D14*
%TO.C,R38*%
X99012500Y-59690000D03*
D11*
X106632500Y-59690000D03*
%TD*%
D14*
%TO.C,R41*%
X159972500Y-59690000D03*
D11*
X167592500Y-59690000D03*
%TD*%
D19*
%TO.C,D1*%
X82502500Y-74930000D03*
D20*
X82502500Y-64770000D03*
%TD*%
D14*
%TO.C,R3*%
X93932500Y-90170000D03*
D11*
X86312500Y-90170000D03*
%TD*%
D14*
%TO.C,R42*%
X180292500Y-59690000D03*
D11*
X187912500Y-59690000D03*
%TD*%
%TO.C,R33*%
X187912500Y-90170000D03*
D14*
X195532500Y-90170000D03*
%TD*%
%TO.C,R34*%
X199342500Y-74930000D03*
D11*
X199342500Y-82550000D03*
%TD*%
D21*
%TO.C,Q1*%
X91392500Y-60960000D03*
D22*
X91392500Y-59690000D03*
X91392500Y-58420000D03*
%TD*%
D14*
%TO.C,R21*%
X154892500Y-90170000D03*
D11*
X147272500Y-90170000D03*
%TD*%
D14*
%TO.C,R25*%
X179022500Y-93980000D03*
D11*
X179022500Y-86360000D03*
%TD*%
D14*
%TO.C,R17*%
X123190000Y-78772500D03*
D11*
X123190000Y-86392500D03*
%TD*%
D19*
%TO.C,D5*%
X163782500Y-74930000D03*
D20*
X163782500Y-64770000D03*
%TD*%
D14*
%TO.C,R15*%
X134572500Y-90170000D03*
D11*
X126952500Y-90170000D03*
%TD*%
D14*
%TO.C,R14*%
X126952500Y-86360000D03*
D11*
X134572500Y-86360000D03*
%TD*%
D19*
%TO.C,D3*%
X123190000Y-74962500D03*
D20*
X123190000Y-64802500D03*
%TD*%
D14*
%TO.C,R29*%
X163782500Y-78740000D03*
D11*
X163782500Y-86360000D03*
%TD*%
D14*
%TO.C,R26*%
X167592500Y-86360000D03*
D11*
X175212500Y-86360000D03*
%TD*%
D19*
%TO.C,D6*%
X184030000Y-74930000D03*
D20*
X184030000Y-64770000D03*
%TD*%
D14*
%TO.C,R9*%
X114300000Y-90170000D03*
D11*
X106680000Y-90170000D03*
%TD*%
D14*
%TO.C,R12*%
X106680000Y-93980000D03*
D11*
X114300000Y-93980000D03*
%TD*%
D19*
%TO.C,D2*%
X102797500Y-74930000D03*
D20*
X102797500Y-64770000D03*
%TD*%
D14*
%TO.C,R7*%
X118110000Y-93980000D03*
D11*
X118110000Y-86360000D03*
%TD*%
D14*
%TO.C,R28*%
X179022500Y-74930000D03*
D11*
X179022500Y-82550000D03*
%TD*%
D14*
%TO.C,R19*%
X158702500Y-93980000D03*
D11*
X158702500Y-86360000D03*
%TD*%
D14*
%TO.C,R20*%
X147272500Y-86360000D03*
D11*
X154892500Y-86360000D03*
%TD*%
D14*
%TO.C,R6*%
X86312500Y-93980000D03*
D11*
X93932500Y-93980000D03*
%TD*%
D14*
%TO.C,R8*%
X106680000Y-86360000D03*
D11*
X114300000Y-86360000D03*
%TD*%
D21*
%TO.C,Q5*%
X172672500Y-60960000D03*
D22*
X172672500Y-59690000D03*
X172672500Y-58420000D03*
%TD*%
D21*
%TO.C,Q6*%
X192920000Y-60960000D03*
D22*
X192920000Y-59690000D03*
X192920000Y-58420000D03*
%TD*%
D21*
%TO.C,Q2*%
X111687500Y-60960000D03*
D22*
X111687500Y-59690000D03*
X111687500Y-58420000D03*
%TD*%
D14*
%TO.C,R40*%
X139652500Y-59690000D03*
D11*
X147272500Y-59690000D03*
%TD*%
M02*
