M48
; DRILL file {KiCad (6.0.4)} date Sun Nov  9 20:57:59 2025
; FORMAT={-:-/ absolute / inch / decimal}
; #@! TF.CreationDate,2025-11-09T20:57:59+08:00
; #@! TF.GenerationSoftware,Kicad,Pcbnew,(6.0.4)
; #@! TF.FileFunction,Plated,1,2,PTH
FMAT,2
INCH
; #@! TA.AperFunction,Plated,PTH,ComponentDrill
T1C0.0197
; #@! TA.AperFunction,Plated,PTH,ComponentDrill
T2C0.0276
; #@! TA.AperFunction,Plated,PTH,ComponentDrill
T3C0.0295
; #@! TA.AperFunction,Plated,PTH,ComponentDrill
T4C0.0315
; #@! TA.AperFunction,Plated,PTH,ComponentDrill
T5C0.0394
; #@! TA.AperFunction,Plated,PTH,ComponentDrill
T6C0.0433
%
G90
G05
T1
X3.25Y-3.7106
X3.25Y-3.75
X7.85Y-2.8106
X7.85Y-2.85
T2
X3.3981Y-2.55
X3.3981Y-2.85
X3.3981Y-3.05
X3.3981Y-3.25
X3.6981Y-2.55
X3.6981Y-2.85
X3.6981Y-3.05
X3.6981Y-3.25
X4.2Y-2.5529
X4.2Y-2.8529
X4.2Y-3.0529
X4.2Y-3.2529
X4.5Y-2.5529
X4.5Y-2.8529
X4.5Y-3.0529
X4.5Y-3.2529
X5.0Y-2.5513
X5.0Y-2.8513
X5.0Y-3.0513
X5.0Y-3.2513
X5.3Y-2.5513
X5.3Y-2.8513
X5.3Y-3.0513
X5.3Y-3.2513
X5.8Y-2.55
X5.8Y-2.85
X5.8Y-3.05
X5.8Y-3.25
X6.1Y-2.55
X6.1Y-2.85
X6.1Y-3.05
X6.1Y-3.25
X6.5981Y-2.55
X6.5981Y-2.85
X6.5981Y-3.05
X6.5981Y-3.25
X6.8981Y-2.55
X6.8981Y-2.85
X6.8981Y-3.05
X6.8981Y-3.25
X7.3981Y-2.5529
X7.3981Y-2.8529
X7.3981Y-3.0529
X7.3981Y-3.2529
X7.6981Y-2.5529
X7.6981Y-2.8529
X7.6981Y-3.0529
X7.6981Y-3.2529
T3
X3.5981Y-2.3
X3.5981Y-2.35
X3.5981Y-2.4
X4.3971Y-2.3
X4.3971Y-2.35
X4.3971Y-2.4
X5.2Y-2.3013
X5.2Y-2.3513
X5.2Y-2.4013
X5.9971Y-2.2971
X5.9971Y-2.3471
X5.9971Y-2.3971
X6.7981Y-2.3
X6.7981Y-2.35
X6.7981Y-2.4
X7.5953Y-2.3
X7.5953Y-2.35
X7.5953Y-2.4
T4
X3.2481Y-3.05
X3.2481Y-3.35
X3.3Y-2.2
X3.3981Y-3.4
X3.3981Y-3.55
X3.3981Y-3.7
X3.6Y-2.2
X3.6981Y-3.4
X3.6981Y-3.55
X3.6981Y-3.7
X3.8481Y-2.95
X3.8481Y-3.25
X3.8481Y-3.4
X3.8481Y-3.7
X3.8981Y-2.35
X4.0471Y-3.05
X4.0471Y-3.35
X4.1981Y-2.35
X4.2Y-3.4
X4.2Y-3.55
X4.2Y-3.7
X4.5Y-3.4
X4.5Y-3.55
X4.5Y-3.7
X4.65Y-2.95
X4.65Y-3.25
X4.65Y-3.4
X4.65Y-3.7
X4.6981Y-2.35
X4.85Y-3.1013
X4.85Y-3.4013
X4.9981Y-2.35
X4.9981Y-3.4
X4.9981Y-3.55
X4.9981Y-3.7
X5.2981Y-3.4
X5.2981Y-3.55
X5.2981Y-3.7
X5.4481Y-2.95
X5.4481Y-3.25
X5.4481Y-3.4
X5.4481Y-3.7
X5.4981Y-2.35
X5.65Y-3.1
X5.65Y-3.4
X5.7981Y-2.35
X5.7981Y-3.4
X5.7981Y-3.55
X5.7981Y-3.7
X6.0981Y-3.4
X6.0981Y-3.55
X6.0981Y-3.7
X6.2481Y-2.95
X6.2481Y-3.25
X6.2481Y-3.4
X6.2481Y-3.7
X6.2981Y-2.35
X6.4481Y-3.1
X6.4481Y-3.4
X6.5981Y-2.35
X6.5981Y-3.4
X6.5981Y-3.55
X6.5981Y-3.7
X6.8981Y-3.4
X6.8981Y-3.55
X6.8981Y-3.7
X7.0481Y-2.95
X7.0481Y-3.25
X7.0481Y-3.4
X7.0481Y-3.7
X7.0981Y-2.35
X7.2453Y-3.1
X7.2453Y-3.4
X7.3981Y-2.35
X7.3981Y-3.4
X7.3981Y-3.55
X7.3981Y-3.7
X7.6981Y-3.4
X7.6981Y-3.55
X7.6981Y-3.7
X7.8481Y-2.95
X7.8481Y-3.25
X7.8481Y-3.4
X7.8481Y-3.7
T5
X3.3Y-1.25
X3.3Y-1.3996
X3.3Y-1.9996
X3.4Y-1.25
X3.4Y-1.3996
X3.4Y-1.9996
X3.5Y-1.3996
X3.5Y-1.9996
X3.6Y-1.3996
X3.6Y-1.9996
X3.6004Y-1.25
X3.7Y-1.3996
X3.7Y-1.9996
X3.7004Y-1.25
X3.8Y-1.3996
X3.8Y-1.9996
X3.8004Y-1.25
X3.9Y-1.3996
X3.9Y-1.9996
X3.9004Y-1.25
X4.0Y-1.3996
X4.0Y-1.9996
X4.1Y-1.3996
X4.1Y-1.9996
X4.1002Y-1.25
X4.2Y-1.3996
X4.2Y-1.9996
X4.2002Y-1.25
X4.3Y-1.3996
X4.3Y-1.9996
X4.3002Y-1.25
X4.4Y-1.3996
X4.4Y-1.9996
X4.4002Y-1.25
X4.5Y-1.3996
X4.5Y-1.9996
X4.5002Y-1.25
X4.6Y-1.3996
X4.6Y-1.9996
X4.7Y-1.3996
X4.7Y-1.9996
T6
X3.2481Y-2.55
X3.2481Y-2.95
X4.0471Y-2.55
X4.0471Y-2.95
X4.85Y-2.5513
X4.85Y-2.9513
X5.6471Y-2.5471
X5.6471Y-2.9471
X6.4481Y-2.55
X6.4481Y-2.95
X7.2453Y-2.55
X7.2453Y-2.95
T0
M30
